<svg xmlns="http://www.w3.org/2000/svg" xmlns:xlink="http://www.w3.org/1999/xlink" width="2000" zoomAndPan="magnify" viewBox="0 0 1500 1499.999933" height="2000" preserveAspectRatio="xMidYMid meet" version="1.0"><path fill="#62dbfb" d="M 297.128906 1500.59375 L 516.863281 1004.371094 L 588.84375 976.023438 L 1125.078125 976.023438 L 1383.300781 1077.714844 C 1437.0625 1098.886719 1466.074219 1153.296875 1473.59375 1210.601562 L 1499.8125 1410.402344 C 1502.894531 1433.921875 1496.867188 1455.417969 1481.335938 1473.34375 C 1465.800781 1491.269531 1445.386719 1500.59375 1421.667969 1500.59375 L 969.691406 1500.59375 L 848.121094 1444.082031 L 744.230469 1500.59375 Z M 297.128906 1500.59375 " fill-opacity="1" fill-rule="evenodd"/><path fill="#f6cfbe" d="M 1014.96875 760.117188 L 698.960938 760.117188 L 698.960938 902.382812 L 735.871094 980.140625 L 856.960938 1076.90625 L 975.601562 982.851562 L 1014.96875 902.382812 Z M 1014.96875 760.117188 " fill-opacity="1" fill-rule="evenodd"/><path fill="#675b5c" d="M 1226.113281 404.675781 C 1258.933594 247.191406 1195.589844 167.742188 1039.175781 98.128906 L 1040.460938 294.582031 L 1099.777344 485.542969 L 1200.808594 488.894531 C 1211.980469 459.550781 1220.53125 431.476562 1226.113281 404.675781 Z M 1226.113281 404.675781 " fill-opacity="1" fill-rule="evenodd"/><path fill="#4c4545" d="M 1097.214844 126.925781 C 1079.550781 117.039062 1060.210938 107.492188 1039.167969 98.128906 L 1040.457031 294.582031 L 1052.96875 334.863281 L 1075.863281 362.355469 C 1086.597656 295.867188 1110.050781 187.09375 1097.214844 126.925781 Z M 1097.214844 126.925781 " fill-opacity="1" fill-rule="evenodd"/><path fill="#675b5c" d="M 1040.457031 294.582031 C 1065.039062 180.9375 1064.609375 138.191406 1039.171875 98.128906 C 842.304688 -125.84375 617.78125 82.300781 520.234375 251.21875 C 465.917969 345.277344 468.054688 438.382812 513.175781 488.761719 L 614.148438 485.542969 Z M 1040.457031 294.582031 " fill-opacity="1" fill-rule="evenodd"/><path fill="#f2b195" d="M 615.941406 633.410156 L 665.007812 552.65625 L 614.152344 468.789062 C 533.300781 442.851562 504.359375 478.648438 509.039062 521.105469 C 513.960938 565.777344 547.765625 637.066406 615.941406 633.410156 Z M 615.941406 633.410156 " fill-opacity="1" fill-rule="evenodd"/><path fill="#f2b195" d="M 1097.984375 633.410156 L 1037.421875 551.613281 L 1099.777344 468.789062 C 1180.628906 442.851562 1209.566406 478.648438 1204.886719 521.105469 C 1199.964844 565.777344 1166.160156 637.066406 1097.984375 633.410156 Z M 1097.984375 633.410156 " fill-opacity="1" fill-rule="evenodd"/><path fill="#f2b195" d="M 1015.035156 815.3125 L 1015.035156 760.46875 L 698.890625 760.46875 L 698.890625 815.308594 C 719.902344 831.921875 741.367188 846.570312 761.398438 858.898438 C 836.417969 905.050781 877.511719 905.050781 952.527344 858.898438 C 972.5625 846.570312 994.019531 831.921875 1015.035156 815.3125 Z M 1015.035156 815.3125 " fill-opacity="1" fill-rule="evenodd"/><path fill="#f6cfbe" d="M 1040.457031 294.582031 C 1079.09375 345.910156 1099.769531 406.625 1099.773438 468.789062 L 1099.773438 613.101562 C 1099.773438 698 1003.773438 778.199219 930.582031 823.230469 C 869.257812 860.957031 844.660156 860.957031 783.339844 823.230469 C 710.148438 778.199219 614.148438 698 614.148438 613.101562 L 614.148438 468.789062 C 680.15625 431.957031 736.210938 387.820312 782.316406 336.375 C 826.066406 287.566406 847.402344 244.820312 931.199219 246.527344 C 973.582031 247.386719 1013.453125 264.925781 1040.457031 294.582031 Z M 1040.457031 294.582031 " fill-opacity="1" fill-rule="evenodd"/><path fill="#479ffb" d="M 593.890625 1203.835938 C 593.890625 1208.691406 593.769531 1213.546875 593.53125 1218.398438 C 593.292969 1223.25 592.9375 1228.089844 592.460938 1232.921875 C 591.984375 1237.757812 591.390625 1242.574219 590.675781 1247.378906 C 589.964844 1252.183594 589.132812 1256.96875 588.1875 1261.730469 C 587.238281 1266.492188 586.175781 1271.230469 584.996094 1275.941406 C 583.816406 1280.652344 582.519531 1285.332031 581.109375 1289.980469 C 579.703125 1294.628906 578.179688 1299.238281 576.542969 1303.8125 C 574.90625 1308.382812 573.160156 1312.914062 571.300781 1317.398438 C 569.441406 1321.886719 567.472656 1326.324219 565.398438 1330.714844 C 563.320312 1335.105469 561.136719 1339.441406 558.847656 1343.726562 C 556.558594 1348.007812 554.164062 1352.234375 551.667969 1356.398438 C 549.171875 1360.566406 546.574219 1364.667969 543.875 1368.707031 C 541.179688 1372.742188 538.382812 1376.714844 535.488281 1380.613281 C 532.597656 1384.515625 529.609375 1388.34375 526.527344 1392.097656 C 523.449219 1395.851562 520.277344 1399.527344 517.015625 1403.125 C 513.753906 1406.726562 510.40625 1410.242188 506.972656 1413.675781 C 503.535156 1417.109375 500.019531 1420.457031 496.421875 1423.71875 C 492.824219 1426.980469 489.148438 1430.152344 485.394531 1433.234375 C 481.640625 1436.3125 477.8125 1439.300781 473.910156 1442.195312 C 470.007812 1445.085938 466.039062 1447.882812 462 1450.582031 C 457.964844 1453.277344 453.863281 1455.875 449.695312 1458.371094 C 445.53125 1460.871094 441.304688 1463.261719 437.023438 1465.550781 C 432.738281 1467.84375 428.402344 1470.023438 424.011719 1472.101562 C 419.621094 1474.179688 415.183594 1476.144531 410.695312 1478.003906 C 406.210938 1479.863281 401.679688 1481.609375 397.105469 1483.246094 C 392.535156 1484.882812 387.925781 1486.40625 383.277344 1487.816406 C 378.628906 1489.226562 373.949219 1490.519531 369.238281 1491.699219 C 364.527344 1492.878906 359.789062 1493.945312 355.027344 1494.890625 C 350.261719 1495.839844 345.480469 1496.667969 340.675781 1497.382812 C 335.871094 1498.09375 331.054688 1498.6875 326.21875 1499.164062 C 321.386719 1499.640625 316.542969 1499.996094 311.695312 1500.234375 C 306.84375 1500.472656 301.988281 1500.59375 297.132812 1500.59375 C 292.277344 1500.59375 287.421875 1500.472656 282.570312 1500.234375 C 277.71875 1499.996094 272.878906 1499.640625 268.046875 1499.164062 C 263.210938 1498.6875 258.394531 1498.09375 253.589844 1497.382812 C 248.785156 1496.667969 244 1495.839844 239.238281 1494.890625 C 234.476562 1493.945312 229.738281 1492.878906 225.027344 1491.699219 C 220.316406 1490.519531 215.636719 1489.226562 210.988281 1487.816406 C 206.339844 1486.40625 201.730469 1484.882812 197.15625 1483.246094 C 192.585938 1481.609375 188.054688 1479.863281 183.570312 1478.003906 C 179.082031 1476.144531 174.644531 1474.175781 170.253906 1472.101562 C 165.863281 1470.023438 161.527344 1467.84375 157.242188 1465.550781 C 152.960938 1463.261719 148.734375 1460.871094 144.570312 1458.371094 C 140.402344 1455.875 136.300781 1453.277344 132.261719 1450.582031 C 128.226562 1447.882812 124.253906 1445.085938 120.355469 1442.195312 C 116.453125 1439.300781 112.625 1436.3125 108.871094 1433.234375 C 105.117188 1430.152344 101.441406 1426.980469 97.84375 1423.71875 C 94.246094 1420.457031 90.726562 1417.109375 87.292969 1413.675781 C 83.859375 1410.242188 80.511719 1406.726562 77.25 1403.125 C 73.988281 1399.527344 70.816406 1395.851562 67.738281 1392.097656 C 64.65625 1388.34375 61.667969 1384.515625 58.773438 1380.613281 C 55.882812 1376.714844 53.085938 1372.742188 50.386719 1368.707031 C 47.691406 1364.667969 45.09375 1360.566406 42.597656 1356.398438 C 40.097656 1352.234375 37.707031 1348.007812 35.417969 1343.726562 C 33.128906 1339.441406 30.945312 1335.105469 28.867188 1330.714844 C 26.792969 1326.324219 24.824219 1321.886719 22.964844 1317.398438 C 21.105469 1312.914062 19.359375 1308.382812 17.722656 1303.8125 C 16.085938 1299.238281 14.5625 1294.628906 13.152344 1289.980469 C 11.746094 1285.332031 10.449219 1280.652344 9.269531 1275.941406 C 8.089844 1271.230469 7.023438 1266.492188 6.078125 1261.730469 C 5.128906 1256.96875 4.300781 1252.183594 3.585938 1247.378906 C 2.875 1242.574219 2.28125 1237.757812 1.804688 1232.921875 C 1.328125 1228.089844 0.972656 1223.25 0.734375 1218.398438 C 0.496094 1213.546875 0.375 1208.691406 0.375 1203.835938 C 0.375 1198.980469 0.496094 1194.125 0.734375 1189.273438 C 0.972656 1184.425781 1.328125 1179.582031 1.804688 1174.75 C 2.28125 1169.914062 2.875 1165.097656 3.585938 1160.292969 C 4.300781 1155.488281 5.128906 1150.707031 6.078125 1145.941406 C 7.023438 1141.179688 8.089844 1136.441406 9.269531 1131.730469 C 10.449219 1127.019531 11.746094 1122.339844 13.152344 1117.691406 C 14.5625 1113.046875 16.085938 1108.433594 17.722656 1103.863281 C 19.359375 1099.289062 21.105469 1094.757812 22.964844 1090.273438 C 24.824219 1085.785156 26.792969 1081.347656 28.867188 1076.957031 C 30.945312 1072.566406 33.128906 1068.230469 35.417969 1063.945312 C 37.707031 1059.664062 40.097656 1055.4375 42.597656 1051.273438 C 45.09375 1047.105469 47.691406 1043.003906 50.386719 1038.96875 C 53.085938 1034.929688 55.882812 1030.960938 58.773438 1027.058594 C 61.667969 1023.15625 64.65625 1019.332031 67.738281 1015.574219 C 70.816406 1011.820312 73.988281 1008.144531 77.25 1004.546875 C 80.511719 1000.949219 83.859375 997.433594 87.292969 993.996094 C 90.726562 990.5625 94.246094 987.214844 97.84375 983.953125 C 101.441406 980.691406 105.117188 977.519531 108.871094 974.441406 C 112.625 971.359375 116.453125 968.371094 120.355469 965.480469 C 124.253906 962.585938 128.226562 959.789062 132.261719 957.09375 C 136.300781 954.394531 140.402344 951.796875 144.570312 949.300781 C 148.734375 946.804688 152.960938 944.410156 157.242188 942.121094 C 161.527344 939.832031 165.863281 937.648438 170.253906 935.570312 C 174.644531 933.496094 179.082031 931.527344 183.570312 929.667969 C 188.054688 927.808594 192.585938 926.0625 197.15625 924.425781 C 201.730469 922.789062 206.339844 921.269531 210.988281 919.859375 C 215.636719 918.449219 220.316406 917.152344 225.027344 915.972656 C 229.738281 914.792969 234.476562 913.730469 239.238281 912.78125 C 244 911.835938 248.785156 911.003906 253.589844 910.292969 C 258.394531 909.578125 263.210938 908.984375 268.046875 908.507812 C 272.878906 908.03125 277.71875 907.675781 282.570312 907.4375 C 287.421875 907.199219 292.277344 907.078125 297.132812 907.078125 C 301.988281 907.078125 306.84375 907.199219 311.695312 907.4375 C 316.542969 907.675781 321.386719 908.03125 326.21875 908.507812 C 331.054688 908.984375 335.871094 909.578125 340.675781 910.292969 C 345.480469 911.003906 350.261719 911.835938 355.027344 912.78125 C 359.789062 913.730469 364.527344 914.792969 369.238281 915.972656 C 373.949219 917.152344 378.628906 918.449219 383.277344 919.859375 C 387.925781 921.269531 392.535156 922.789062 397.105469 924.425781 C 401.679688 926.0625 406.210938 927.808594 410.695312 929.667969 C 415.183594 931.527344 419.621094 933.496094 424.011719 935.570312 C 428.402344 937.648438 432.738281 939.832031 437.023438 942.121094 C 441.304688 944.410156 445.53125 946.804688 449.695312 949.300781 C 453.863281 951.796875 457.964844 954.394531 462 957.09375 C 466.039062 959.789062 470.007812 962.585938 473.910156 965.480469 C 477.8125 968.371094 481.640625 971.359375 485.394531 974.441406 C 489.148438 977.519531 492.824219 980.691406 496.421875 983.953125 C 500.019531 987.214844 503.535156 990.5625 506.972656 993.996094 C 510.40625 997.433594 513.753906 1000.949219 517.015625 1004.546875 C 520.277344 1008.144531 523.449219 1011.820312 526.527344 1015.574219 C 529.609375 1019.332031 532.597656 1023.15625 535.488281 1027.058594 C 538.382812 1030.960938 541.179688 1034.929688 543.875 1038.96875 C 546.574219 1043.003906 549.171875 1047.105469 551.667969 1051.273438 C 554.164062 1055.4375 556.558594 1059.664062 558.847656 1063.945312 C 561.136719 1068.230469 563.320312 1072.566406 565.398438 1076.957031 C 567.472656 1081.347656 569.441406 1085.785156 571.300781 1090.273438 C 573.160156 1094.757812 574.90625 1099.289062 576.542969 1103.863281 C 578.179688 1108.433594 579.703125 1113.046875 581.109375 1117.691406 C 582.519531 1122.339844 583.816406 1127.019531 584.996094 1131.730469 C 586.175781 1136.441406 587.238281 1141.179688 588.1875 1145.941406 C 589.132812 1150.707031 589.964844 1155.488281 590.675781 1160.292969 C 591.390625 1165.097656 591.984375 1169.917969 592.460938 1174.75 C 592.9375 1179.582031 593.292969 1184.425781 593.53125 1189.277344 C 593.769531 1194.125 593.890625 1198.980469 593.890625 1203.835938 Z M 593.890625 1203.835938 " fill-opacity="1" fill-rule="nonzero"/><path fill="#ffd731" d="M 941.648438 1166.339844 L 926.003906 1114.460938 L 856.960938 1076.90625 L 787.476562 1114.925781 L 772.277344 1166.339844 L 821.382812 1259.988281 L 892.542969 1259.988281 Z M 941.648438 1166.339844 " fill-opacity="1" fill-rule="evenodd"/><path fill="#ffd731" d="M 969.691406 1500.59375 L 744.230469 1500.59375 L 821.382812 1259.988281 L 858.589844 1197.203125 L 892.542969 1259.988281 Z M 969.691406 1500.59375 " fill-opacity="1" fill-rule="evenodd"/><path fill="#fbfbfb" d="M 354.492188 1076.351562 C 363.097656 1080.230469 371.238281 1084.957031 378.808594 1090.421875 L 452.277344 1079.78125 L 482.132812 1131.496094 L 436.1875 1189.796875 C 436.648438 1194.414062 436.886719 1199.09375 436.886719 1203.832031 C 436.886719 1208.570312 436.652344 1213.25 436.191406 1217.867188 L 482.132812 1276.167969 L 452.277344 1327.882812 L 378.808594 1317.242188 C 371.234375 1322.703125 363.097656 1327.429688 354.492188 1331.308594 L 326.984375 1400.21875 L 267.273438 1400.21875 L 239.769531 1331.3125 C 231.164062 1327.433594 223.023438 1322.707031 215.449219 1317.242188 L 141.984375 1327.882812 L 112.125 1276.167969 L 158.074219 1217.863281 C 157.613281 1213.246094 157.371094 1208.566406 157.371094 1203.832031 C 157.371094 1199.09375 157.613281 1194.414062 158.074219 1189.800781 L 112.125 1131.496094 L 141.984375 1079.78125 L 215.449219 1090.421875 C 223.023438 1084.957031 231.164062 1080.230469 239.769531 1076.351562 L 267.273438 1007.445312 L 326.988281 1007.445312 Z M 354.492188 1076.351562 " fill-opacity="1" fill-rule="evenodd"/><path fill="#479ffb" d="M 368.988281 1203.835938 C 368.988281 1205.011719 368.960938 1206.1875 368.902344 1207.363281 C 368.84375 1208.535156 368.757812 1209.710938 368.640625 1210.878906 C 368.527344 1212.050781 368.382812 1213.214844 368.210938 1214.378906 C 368.039062 1215.542969 367.835938 1216.699219 367.609375 1217.855469 C 367.378906 1219.007812 367.121094 1220.15625 366.835938 1221.296875 C 366.550781 1222.4375 366.234375 1223.570312 365.894531 1224.695312 C 365.550781 1225.820312 365.183594 1226.9375 364.789062 1228.042969 C 364.390625 1229.152344 363.96875 1230.246094 363.519531 1231.335938 C 363.070312 1232.421875 362.59375 1233.496094 362.089844 1234.558594 C 361.585938 1235.621094 361.058594 1236.671875 360.503906 1237.707031 C 359.949219 1238.746094 359.371094 1239.769531 358.765625 1240.777344 C 358.160156 1241.785156 357.53125 1242.78125 356.878906 1243.757812 C 356.226562 1244.734375 355.546875 1245.695312 354.847656 1246.640625 C 354.148438 1247.585938 353.421875 1248.511719 352.675781 1249.421875 C 351.929688 1250.332031 351.164062 1251.21875 350.375 1252.089844 C 349.585938 1252.964844 348.773438 1253.8125 347.941406 1254.644531 C 347.109375 1255.476562 346.257812 1256.289062 345.386719 1257.078125 C 344.515625 1257.867188 343.625 1258.636719 342.71875 1259.382812 C 341.808594 1260.128906 340.882812 1260.851562 339.9375 1261.550781 C 338.992188 1262.25 338.03125 1262.929688 337.054688 1263.582031 C 336.074219 1264.234375 335.082031 1264.863281 334.074219 1265.46875 C 333.066406 1266.074219 332.042969 1266.652344 331.003906 1267.207031 C 329.96875 1267.761719 328.917969 1268.289062 327.855469 1268.792969 C 326.792969 1269.296875 325.71875 1269.773438 324.628906 1270.222656 C 323.542969 1270.671875 322.445312 1271.09375 321.339844 1271.492188 C 320.234375 1271.886719 319.117188 1272.257812 317.992188 1272.597656 C 316.867188 1272.9375 315.734375 1273.253906 314.59375 1273.539062 C 313.453125 1273.824219 312.304688 1274.082031 311.152344 1274.3125 C 309.996094 1274.539062 308.839844 1274.742188 307.675781 1274.914062 C 306.511719 1275.085938 305.347656 1275.230469 304.175781 1275.347656 C 303.003906 1275.460938 301.832031 1275.546875 300.660156 1275.605469 C 299.484375 1275.664062 298.308594 1275.691406 297.132812 1275.691406 C 295.957031 1275.691406 294.78125 1275.664062 293.605469 1275.605469 C 292.433594 1275.546875 291.257812 1275.460938 290.089844 1275.347656 C 288.917969 1275.230469 287.753906 1275.085938 286.589844 1274.914062 C 285.425781 1274.742188 284.265625 1274.539062 283.113281 1274.3125 C 281.960938 1274.082031 280.8125 1273.824219 279.671875 1273.539062 C 278.53125 1273.253906 277.398438 1272.9375 276.273438 1272.597656 C 275.148438 1272.257812 274.03125 1271.886719 272.925781 1271.492188 C 271.816406 1271.09375 270.722656 1270.671875 269.632812 1270.222656 C 268.546875 1269.773438 267.472656 1269.296875 266.410156 1268.792969 C 265.347656 1268.289062 264.296875 1267.761719 263.261719 1267.207031 C 262.222656 1266.652344 261.199219 1266.074219 260.191406 1265.46875 C 259.183594 1264.863281 258.1875 1264.234375 257.210938 1263.582031 C 256.234375 1262.929688 255.273438 1262.25 254.328125 1261.550781 C 253.382812 1260.851562 252.457031 1260.128906 251.546875 1259.382812 C 250.640625 1258.636719 249.75 1257.867188 248.878906 1257.078125 C 248.007812 1256.289062 247.15625 1255.476562 246.324219 1254.644531 C 245.492188 1253.8125 244.679688 1252.964844 243.890625 1252.089844 C 243.101562 1251.21875 242.332031 1250.332031 241.585938 1249.421875 C 240.839844 1248.511719 240.117188 1247.585938 239.417969 1246.640625 C 238.71875 1245.695312 238.039062 1244.734375 237.386719 1243.757812 C 236.734375 1242.78125 236.105469 1241.785156 235.5 1240.777344 C 234.894531 1239.769531 234.316406 1238.746094 233.761719 1237.707031 C 233.207031 1236.671875 232.679688 1235.621094 232.175781 1234.558594 C 231.671875 1233.496094 231.195312 1232.421875 230.746094 1231.335938 C 230.296875 1230.246094 229.875 1229.152344 229.476562 1228.042969 C 229.082031 1226.9375 228.710938 1225.820312 228.371094 1224.695312 C 228.03125 1223.570312 227.714844 1222.4375 227.429688 1221.296875 C 227.144531 1220.15625 226.886719 1219.007812 226.65625 1217.855469 C 226.429688 1216.699219 226.226562 1215.542969 226.054688 1214.378906 C 225.882812 1213.214844 225.738281 1212.050781 225.621094 1210.878906 C 225.507812 1209.710938 225.421875 1208.535156 225.363281 1207.363281 C 225.304688 1206.1875 225.277344 1205.011719 225.277344 1203.835938 C 225.277344 1202.660156 225.304688 1201.484375 225.363281 1200.3125 C 225.421875 1199.136719 225.507812 1197.964844 225.621094 1196.792969 C 225.738281 1195.621094 225.882812 1194.457031 226.054688 1193.292969 C 226.226562 1192.128906 226.429688 1190.972656 226.65625 1189.816406 C 226.886719 1188.664062 227.144531 1187.515625 227.429688 1186.375 C 227.714844 1185.234375 228.03125 1184.101562 228.371094 1182.976562 C 228.710938 1181.851562 229.082031 1180.734375 229.476562 1179.628906 C 229.875 1178.523438 230.296875 1177.425781 230.746094 1176.339844 C 231.195312 1175.25 231.671875 1174.175781 232.175781 1173.113281 C 232.679688 1172.050781 233.207031 1171 233.761719 1169.964844 C 234.316406 1168.925781 234.894531 1167.902344 235.5 1166.894531 C 236.105469 1165.886719 236.734375 1164.894531 237.386719 1163.914062 C 238.039062 1162.9375 238.71875 1161.976562 239.417969 1161.03125 C 240.117188 1160.085938 240.839844 1159.160156 241.585938 1158.25 C 242.332031 1157.34375 243.101562 1156.453125 243.890625 1155.582031 C 244.679688 1154.710938 245.492188 1153.859375 246.324219 1153.027344 C 247.15625 1152.195312 248.007812 1151.382812 248.878906 1150.59375 C 249.75 1149.804688 250.640625 1149.039062 251.546875 1148.292969 C 252.457031 1147.546875 253.382812 1146.820312 254.328125 1146.121094 C 255.273438 1145.421875 256.234375 1144.742188 257.210938 1144.089844 C 258.1875 1143.4375 259.183594 1142.808594 260.191406 1142.203125 C 261.199219 1141.597656 262.222656 1141.019531 263.261719 1140.464844 C 264.296875 1139.910156 265.347656 1139.382812 266.410156 1138.878906 C 267.472656 1138.375 268.546875 1137.902344 269.632812 1137.449219 C 270.722656 1137 271.816406 1136.578125 272.925781 1136.179688 C 274.03125 1135.785156 275.148438 1135.417969 276.273438 1135.074219 C 277.398438 1134.734375 278.53125 1134.421875 279.671875 1134.132812 C 280.8125 1133.847656 281.960938 1133.589844 283.113281 1133.363281 C 284.265625 1133.132812 285.425781 1132.929688 286.589844 1132.757812 C 287.753906 1132.585938 288.917969 1132.441406 290.089844 1132.328125 C 291.257812 1132.210938 292.433594 1132.125 293.605469 1132.066406 C 294.78125 1132.007812 295.957031 1131.980469 297.132812 1131.980469 C 298.308594 1131.980469 299.484375 1132.007812 300.660156 1132.066406 C 301.832031 1132.125 303.003906 1132.210938 304.175781 1132.328125 C 305.347656 1132.441406 306.511719 1132.585938 307.675781 1132.757812 C 308.839844 1132.929688 309.996094 1133.132812 311.152344 1133.363281 C 312.304688 1133.589844 313.453125 1133.847656 314.59375 1134.132812 C 315.734375 1134.421875 316.867188 1134.734375 317.992188 1135.074219 C 319.117188 1135.417969 320.234375 1135.785156 321.339844 1136.179688 C 322.445312 1136.578125 323.542969 1137 324.628906 1137.449219 C 325.71875 1137.902344 326.792969 1138.378906 327.855469 1138.878906 C 328.917969 1139.382812 329.96875 1139.910156 331.003906 1140.464844 C 332.042969 1141.019531 333.066406 1141.597656 334.074219 1142.203125 C 335.082031 1142.808594 336.074219 1143.4375 337.054688 1144.089844 C 338.03125 1144.742188 338.992188 1145.421875 339.9375 1146.121094 C 340.882812 1146.820312 341.808594 1147.546875 342.71875 1148.292969 C 343.625 1149.039062 344.515625 1149.804688 345.386719 1150.59375 C 346.257812 1151.382812 347.109375 1152.195312 347.941406 1153.027344 C 348.773438 1153.859375 349.585938 1154.710938 350.375 1155.582031 C 351.164062 1156.453125 351.929688 1157.34375 352.675781 1158.25 C 353.421875 1159.160156 354.148438 1160.085938 354.847656 1161.03125 C 355.546875 1161.976562 356.226562 1162.9375 356.878906 1163.914062 C 357.53125 1164.894531 358.160156 1165.886719 358.765625 1166.894531 C 359.371094 1167.902344 359.949219 1168.925781 360.503906 1169.964844 C 361.058594 1171 361.585938 1172.050781 362.089844 1173.113281 C 362.59375 1174.175781 363.070312 1175.25 363.519531 1176.339844 C 363.96875 1177.425781 364.390625 1178.523438 364.789062 1179.628906 C 365.183594 1180.734375 365.550781 1181.851562 365.894531 1182.976562 C 366.234375 1184.101562 366.550781 1185.234375 366.835938 1186.375 C 367.121094 1187.515625 367.378906 1188.664062 367.609375 1189.816406 C 367.835938 1190.972656 368.039062 1192.128906 368.210938 1193.292969 C 368.382812 1194.457031 368.527344 1195.621094 368.640625 1196.792969 C 368.757812 1197.964844 368.84375 1199.136719 368.902344 1200.3125 C 368.960938 1201.484375 368.988281 1202.660156 368.988281 1203.835938 Z M 368.988281 1203.835938 " fill-opacity="1" fill-rule="nonzero"/><path fill="#479ffb" d="M 856.960938 1076.90625 L 1014.96875 902.382812 L 1125.078125 976.019531 L 974.167969 1200.691406 Z M 856.960938 1076.90625 " fill-opacity="1" fill-rule="evenodd"/><path fill="#479ffb" d="M 856.960938 1076.90625 L 698.960938 902.382812 L 588.84375 976.019531 L 739.757812 1200.691406 Z M 856.960938 1076.90625 " fill-opacity="1" fill-rule="evenodd"/><path fill="#55b7d1" d="M 1239.699219 1500.59375 L 1206.210938 1500.59375 L 1206.210938 1263.210938 C 1206.210938 1253.964844 1213.707031 1246.464844 1222.957031 1246.464844 C 1232.203125 1246.464844 1239.699219 1253.964844 1239.699219 1263.210938 Z M 1239.699219 1500.59375 " fill-opacity="1" fill-rule="evenodd"/></svg>