<svg xmlns="http://www.w3.org/2000/svg" xmlns:xlink="http://www.w3.org/1999/xlink" width="2000" zoomAndPan="magnify" viewBox="0 0 1500 1499.999933" height="2000" preserveAspectRatio="xMidYMid meet" version="1.0"><defs><clipPath id="c6eb254652"><path d="M 172.1875 0 L 1327.9375 0 L 1327.9375 1500 L 172.1875 1500 Z M 172.1875 0 " clip-rule="nonzero"/></clipPath></defs><g clip-path="url(#c6eb254652)"><path fill="#004aad" d="M 1263.09375 164.445312 L 1016.253906 164.445312 L 886.128906 35.015625 C 884.050781 32.9375 881.96875 31.320312 879.890625 29.703125 C 859.320312 12.597656 827.195312 0.347656 801.769531 0.347656 L 236.902344 0.347656 C 201.308594 0.347656 172.1875 29.46875 172.1875 65.0625 L 172.1875 1270.839844 C 172.1875 1306.429688 201.308594 1335.554688 236.902344 1335.554688 L 310.863281 1335.554688 L 310.863281 1434.9375 C 310.863281 1470.53125 339.984375 1499.652344 375.578125 1499.652344 L 1263.09375 1499.652344 C 1298.6875 1499.652344 1327.808594 1470.53125 1327.808594 1434.9375 L 1327.808594 228.929688 C 1327.808594 193.335938 1298.6875 164.445312 1263.09375 164.445312 Z M 866.484375 89.5625 L 1098.996094 320.457031 L 878.503906 320.457031 C 871.800781 320.457031 866.253906 314.910156 866.253906 308.207031 L 866.253906 89.5625 Z M 224.652344 1270.839844 L 224.652344 65.0625 C 224.652344 58.359375 230.199219 52.8125 236.902344 52.8125 L 801.769531 52.8125 C 805.699219 52.8125 810.089844 53.507812 814.714844 54.664062 C 814.25 57.898438 814.019531 61.367188 814.019531 64.832031 L 814.019531 307.976562 C 814.019531 343.566406 843.140625 372.691406 878.734375 372.691406 L 1124.417969 372.691406 C 1128.117188 372.691406 1131.585938 372.457031 1134.589844 371.996094 C 1135.746094 376.617188 1136.4375 381.011719 1136.4375 384.9375 L 1136.4375 1270.605469 C 1136.4375 1277.308594 1130.890625 1282.855469 1124.1875 1282.855469 L 236.902344 1282.855469 C 230.199219 1283.085938 224.652344 1277.539062 224.652344 1270.839844 Z M 1275.34375 1434.9375 C 1275.34375 1441.640625 1269.796875 1447.1875 1263.09375 1447.1875 L 375.578125 1447.1875 C 368.875 1447.1875 363.328125 1441.640625 363.328125 1434.9375 L 363.328125 1335.554688 L 1124.417969 1335.554688 C 1160.011719 1335.554688 1189.132812 1306.429688 1189.132812 1270.839844 L 1189.132812 385.171875 C 1189.132812 359.746094 1176.886719 328.082031 1159.78125 307.511719 C 1158.164062 305.433594 1156.316406 303.351562 1154.003906 301.042969 L 1069.179688 216.910156 L 1263.09375 216.910156 C 1269.796875 216.910156 1275.34375 222.457031 1275.34375 229.160156 Z M 989.441406 568.914062 L 371.878906 568.914062 C 359.398438 568.914062 349.460938 558.746094 349.460938 546.496094 C 349.460938 534.246094 359.628906 524.074219 371.878906 524.074219 L 989.441406 524.074219 C 1001.925781 524.074219 1011.863281 534.246094 1011.863281 546.496094 C 1011.863281 558.746094 1001.925781 568.914062 989.441406 568.914062 Z M 989.441406 733.011719 L 371.878906 733.011719 C 359.398438 733.011719 349.460938 722.84375 349.460938 710.59375 C 349.460938 698.34375 359.628906 688.175781 371.878906 688.175781 L 989.441406 688.175781 C 1001.925781 688.175781 1011.863281 698.34375 1011.863281 710.59375 C 1011.863281 722.84375 1001.925781 733.011719 989.441406 733.011719 Z M 989.441406 896.878906 L 371.878906 896.878906 C 359.398438 896.878906 349.460938 886.710938 349.460938 874.460938 C 349.460938 862.210938 359.628906 852.042969 371.878906 852.042969 L 989.441406 852.042969 C 1001.925781 852.042969 1011.863281 862.210938 1011.863281 874.460938 C 1011.863281 886.710938 1001.925781 896.878906 989.441406 896.878906 Z M 636.746094 1060.976562 L 371.878906 1060.976562 C 359.398438 1060.976562 349.460938 1050.808594 349.460938 1038.558594 C 349.460938 1026.078125 359.628906 1016.140625 371.878906 1016.140625 L 636.746094 1016.140625 C 649.226562 1016.140625 659.167969 1026.308594 659.167969 1038.558594 C 659.167969 1050.808594 649.226562 1060.976562 636.746094 1060.976562 Z M 636.746094 1060.976562 " fill-opacity="1" fill-rule="nonzero"/></g></svg>