<svg xmlns="http://www.w3.org/2000/svg" xmlns:xlink="http://www.w3.org/1999/xlink" width="2000" zoomAndPan="magnify" viewBox="0 0 1500 1499.999933" height="2000" preserveAspectRatio="xMidYMid meet" version="1.0"><path fill="#2a7abd" d="M 248.710938 575.765625 L 248.710938 693.765625 C 248.710938 704.640625 239.902344 713.417969 229.0625 713.417969 C 218.21875 713.417969 209.410156 704.605469 209.410156 693.765625 L 209.410156 575.765625 L 185.339844 599.867188 C 177.578125 607.53125 165.132812 607.53125 157.53125 599.867188 C 149.902344 592.207031 149.902344 579.726562 157.53125 572.097656 L 215.175781 514.453125 C 222.9375 506.789062 235.382812 506.789062 242.980469 514.453125 L 300.621094 572.097656 C 308.253906 579.757812 308.253906 592.207031 300.621094 599.867188 C 296.757812 603.699219 291.8125 605.632812 286.703125 605.632812 C 281.59375 605.632812 276.679688 603.734375 272.785156 599.867188 Z M 116.59375 660.785156 C 105.753906 660.785156 96.941406 669.597656 96.941406 680.4375 L 96.941406 751.441406 C 96.941406 762.28125 105.753906 771.089844 116.59375 771.089844 L 341.660156 771.089844 C 352.5 771.089844 361.179688 762.28125 361.179688 751.441406 L 361.179688 680.4375 C 361.179688 669.597656 352.5 660.785156 341.660156 660.785156 C 330.820312 660.785156 322.007812 669.597656 322.007812 680.4375 L 322.007812 731.789062 L 136.246094 731.789062 L 136.246094 680.4375 C 136.246094 669.597656 127.433594 660.785156 116.59375 660.785156 Z M 0.132812 639.859375 C 0.132812 766.082031 102.839844 868.789062 229.0625 868.789062 C 355.285156 868.789062 457.992188 766.113281 457.992188 639.859375 C 457.992188 513.601562 355.285156 410.929688 229.0625 410.929688 C 102.839844 410.929688 0.132812 513.636719 0.132812 639.859375 Z M 0.132812 639.859375 " fill-opacity="1" fill-rule="evenodd"/><path fill="#1d5074" d="M 397.042969 194.015625 L 1105.121094 194.015625 C 1115.960938 194.015625 1124.769531 202.828125 1124.769531 213.667969 C 1124.769531 224.507812 1115.960938 233.320312 1105.121094 233.320312 L 397.042969 233.320312 C 386.199219 233.320312 377.390625 224.542969 377.390625 213.667969 C 377.390625 202.792969 386.199219 194.015625 397.042969 194.015625 Z M 397.042969 335.4375 L 1105.121094 335.4375 C 1115.960938 335.4375 1124.769531 344.246094 1124.769531 355.085938 C 1124.769531 365.929688 1115.960938 374.738281 1105.121094 374.738281 L 397.042969 374.738281 C 386.199219 374.738281 377.390625 365.960938 377.390625 355.085938 C 377.390625 344.214844 386.199219 335.4375 397.042969 335.4375 Z M 441.8125 476.855469 L 1105.085938 476.855469 C 1115.929688 476.855469 1124.738281 485.664062 1124.738281 496.507812 C 1124.738281 507.347656 1115.929688 516.15625 1105.085938 516.15625 L 466.933594 516.15625 C 483.109375 547.140625 493.394531 581.691406 496.34375 618.273438 L 1105.085938 618.273438 C 1115.929688 618.273438 1124.738281 627.085938 1124.738281 637.925781 C 1124.738281 648.765625 1115.929688 657.578125 1105.085938 657.578125 L 496.636719 657.578125 C 494.246094 694.09375 484.617188 728.582031 468.960938 759.695312 L 1105.121094 759.695312 C 1115.960938 759.695312 1124.769531 768.503906 1124.769531 779.34375 C 1124.769531 790.183594 1115.960938 798.996094 1105.121094 798.996094 L 444.761719 798.996094 C 395.960938 865.121094 317.457031 908.089844 229.0625 908.089844 C 228.113281 908.089844 227.0625 908.023438 226.113281 908.023438 L 226.113281 1219.355469 C 226.113281 1250.535156 251.398438 1275.882812 282.542969 1275.882812 L 853.558594 1275.882812 L 853.558594 949.289062 C 853.558594 896.429688 896.625 853.460938 949.453125 853.460938 L 1276.015625 853.460938 L 1276.015625 56.527344 C 1276.015625 25.347656 1250.601562 0 1219.453125 0 L 282.542969 0 C 251.398438 0 226.113281 25.347656 226.113281 56.527344 L 226.113281 371.726562 C 227.0625 371.726562 228.113281 371.660156 229.0625 371.660156 C 315.71875 371.660156 392.882812 412.957031 441.8125 476.886719 Z M 719.3125 1042.566406 C 730.152344 1042.566406 738.960938 1051.34375 738.960938 1062.214844 C 738.960938 1073.089844 730.152344 1081.867188 719.3125 1081.867188 L 397.042969 1081.867188 C 386.199219 1081.867188 377.390625 1073.058594 377.390625 1062.214844 C 377.390625 1051.375 386.199219 1042.566406 397.042969 1042.566406 Z M 397.042969 901.113281 L 719.3125 901.113281 C 730.152344 901.113281 738.960938 909.921875 738.960938 920.765625 C 738.960938 931.605469 730.152344 940.414062 719.3125 940.414062 L 397.042969 940.414062 C 386.199219 940.414062 377.390625 931.605469 377.390625 920.765625 C 377.390625 909.921875 386.199219 901.113281 397.042969 901.113281 Z M 397.042969 901.113281 " fill-opacity="1" fill-rule="evenodd"/><path fill="#1d5074" d="M 1248.210938 892.761719 L 949.453125 892.761719 C 918.308594 892.761719 892.894531 918.109375 892.894531 949.289062 L 892.894531 1248.078125 Z M 1248.210938 892.761719 " fill-opacity="1" fill-rule="evenodd"/><path fill="#2a7abd" d="M 1309.585938 886.996094 L 887.128906 1309.421875 C 883.394531 1313.1875 878.320312 1315.183594 873.210938 1315.183594 L 523.917969 1315.183594 L 523.917969 1448.644531 C 523.917969 1476.976562 546.910156 1500.03125 575.273438 1500.03125 L 1448.777344 1500.03125 C 1477.140625 1500.03125 1500.128906 1476.976562 1500.128906 1448.644531 L 1500.128906 364.519531 C 1500.128906 336.191406 1477.140625 313.132812 1448.777344 313.132812 L 1315.316406 313.132812 L 1315.316406 873.078125 C 1315.316406 878.1875 1313.320312 883.199219 1309.550781 886.964844 Z M 1309.585938 886.996094 " fill-opacity="1" fill-rule="evenodd"/></svg>