<svg xmlns="http://www.w3.org/2000/svg" xmlns:xlink="http://www.w3.org/1999/xlink" width="2000" zoomAndPan="magnify" viewBox="0 0 1500 1499.999933" height="2000" preserveAspectRatio="xMidYMid meet" version="1.0"><defs><clipPath id="f71ed79262"><path d="M 0 49.6875 L 1500 49.6875 L 1500 1450.6875 L 0 1450.6875 Z M 0 49.6875 " clip-rule="nonzero"/></clipPath></defs><g clip-path="url(#f71ed79262)"><path fill="#004aad" d="M 738.476562 49.90625 C 492.109375 49.90625 306.367188 232.976562 263.527344 465 C 104.382812 510.210938 0.078125 629.035156 0.078125 776.292969 C 0.078125 946.496094 131.042969 1054.691406 250.347656 1095.59375 C 250.378906 1095.59375 250.410156 1095.59375 250.445312 1095.59375 C 313.34375 1116.9375 398.457031 1131.296875 495.242188 1140.511719 C 496.894531 1140.71875 498.554688 1140.839844 500.222656 1140.882812 C 501.890625 1140.921875 503.554688 1140.878906 505.214844 1140.75 C 506.875 1140.625 508.527344 1140.414062 510.167969 1140.125 C 511.808594 1139.832031 513.433594 1139.460938 515.035156 1139.003906 C 516.640625 1138.550781 518.21875 1138.019531 519.769531 1137.40625 C 521.316406 1136.796875 522.835938 1136.109375 524.316406 1135.34375 C 525.796875 1134.582031 527.238281 1133.746094 528.636719 1132.839844 C 530.035156 1131.929688 531.382812 1130.957031 532.683594 1129.914062 C 533.984375 1128.871094 535.230469 1127.769531 536.421875 1126.601562 C 537.609375 1125.433594 538.738281 1124.210938 539.808594 1122.929688 C 540.875 1121.652344 541.875 1120.320312 542.8125 1118.941406 C 543.746094 1117.5625 544.609375 1116.140625 545.402344 1114.671875 C 546.195312 1113.207031 546.914062 1111.703125 547.554688 1110.167969 C 548.199219 1108.628906 548.761719 1107.0625 549.246094 1105.46875 C 549.734375 1103.875 550.136719 1102.257812 550.460938 1100.625 C 550.785156 1098.988281 551.027344 1097.339844 551.1875 1095.683594 C 551.347656 1094.023438 551.425781 1092.359375 551.417969 1090.695312 C 551.410156 1089.027344 551.320312 1087.363281 551.148438 1085.707031 C 550.976562 1084.050781 550.71875 1082.40625 550.382812 1080.773438 C 550.042969 1079.140625 549.625 1077.527344 549.128906 1075.9375 C 548.628906 1074.347656 548.054688 1072.785156 547.398438 1071.253906 C 546.742188 1069.71875 546.015625 1068.222656 545.210938 1066.765625 C 544.40625 1065.304688 543.53125 1063.890625 542.582031 1062.515625 C 541.636719 1061.144531 540.625 1059.824219 539.546875 1058.550781 C 538.46875 1057.28125 537.332031 1056.066406 536.128906 1054.910156 C 534.929688 1053.753906 533.675781 1052.65625 532.367188 1051.625 C 531.058594 1050.59375 529.699219 1049.628906 528.296875 1048.734375 C 526.890625 1047.839844 525.445312 1047.015625 523.957031 1046.265625 C 522.46875 1045.511719 520.945312 1044.835938 519.390625 1044.238281 C 517.835938 1043.640625 516.253906 1043.117188 514.648438 1042.679688 C 513.039062 1042.238281 511.414062 1041.878906 509.769531 1041.597656 C 508.128906 1041.320312 506.472656 1041.125 504.8125 1041.011719 C 412.695312 1032.238281 331.867188 1017.613281 282.765625 1000.976562 C 192.089844 969.886719 100.070312 895.058594 100.070312 776.292969 C 100.070312 666.160156 169.488281 583.203125 312.058594 552.585938 C 313.375 552.359375 314.675781 552.078125 315.96875 551.746094 C 317.261719 551.414062 318.539062 551.03125 319.800781 550.597656 C 321.0625 550.160156 322.308594 549.675781 323.53125 549.144531 C 324.753906 548.609375 325.953125 548.027344 327.128906 547.394531 C 328.304688 546.765625 329.457031 546.089844 330.578125 545.367188 C 331.699219 544.644531 332.792969 543.878906 333.851562 543.070312 C 334.914062 542.257812 335.941406 541.40625 336.933594 540.515625 C 337.925781 539.625 338.882812 538.695312 339.800781 537.726562 C 340.71875 536.757812 341.597656 535.753906 342.433594 534.714844 C 343.273438 533.675781 344.066406 532.605469 344.820312 531.5 C 345.574219 530.398438 346.28125 529.269531 346.941406 528.109375 C 347.601562 526.949219 348.21875 525.765625 348.785156 524.558594 C 349.351562 523.347656 349.867188 522.121094 350.335938 520.871094 C 350.804688 519.621094 351.222656 518.355469 351.589844 517.070312 C 351.957031 515.789062 352.273438 514.492188 352.535156 513.183594 C 352.800781 511.875 353.007812 510.558594 353.167969 509.230469 C 377.511719 305.460938 530.894531 149.894531 738.476562 149.894531 C 901.460938 149.894531 1040.148438 254.773438 1097.230469 404.164062 C 1098.03125 406.265625 1098.972656 408.304688 1100.050781 410.277344 C 1101.128906 412.25 1102.332031 414.140625 1103.667969 415.953125 C 1105 417.765625 1106.449219 419.476562 1108.011719 421.09375 C 1109.578125 422.707031 1111.242188 424.210938 1113.011719 425.601562 C 1114.777344 426.992188 1116.628906 428.257812 1118.566406 429.398438 C 1120.507812 430.539062 1122.511719 431.542969 1124.585938 432.414062 C 1126.660156 433.285156 1128.78125 434.011719 1130.953125 434.59375 C 1133.125 435.179688 1135.324219 435.613281 1137.554688 435.898438 C 1286.199219 455.082031 1399.929688 565.601562 1399.929688 718.78125 C 1399.929688 849.3125 1333.660156 928.824219 1205.226562 979.203125 C 1147.359375 1001.695312 1073.617188 1019.152344 992.84375 1030.757812 C 991.226562 1030.996094 989.621094 1031.308594 988.03125 1031.699219 C 986.441406 1032.09375 984.878906 1032.5625 983.335938 1033.109375 C 981.792969 1033.65625 980.277344 1034.277344 978.796875 1034.972656 C 977.316406 1035.667969 975.871094 1036.433594 974.464844 1037.269531 C 973.058594 1038.105469 971.695312 1039.011719 970.378906 1039.980469 C 969.058594 1040.953125 967.792969 1041.984375 966.574219 1043.078125 C 965.359375 1044.175781 964.199219 1045.328125 963.09375 1046.535156 C 961.992188 1047.746094 960.949219 1049.003906 959.96875 1050.316406 C 958.988281 1051.625 958.078125 1052.984375 957.230469 1054.382812 C 956.382812 1055.785156 955.605469 1057.222656 954.902344 1058.699219 C 954.195312 1060.175781 953.566406 1061.683594 953.007812 1063.222656 C 952.449219 1064.761719 951.96875 1066.324219 951.566406 1067.910156 C 951.160156 1069.5 950.835938 1071.101562 950.589844 1072.71875 C 950.34375 1074.335938 950.175781 1075.960938 950.089844 1077.597656 C 950 1079.230469 949.996094 1080.867188 950.070312 1082.5 C 950.140625 1084.136719 950.296875 1085.765625 950.527344 1087.382812 C 950.761719 1089.003906 951.074219 1090.609375 951.464844 1092.199219 C 951.855469 1093.789062 952.324219 1095.355469 952.867188 1096.898438 C 953.414062 1098.441406 954.03125 1099.957031 954.726562 1101.4375 C 955.417969 1102.921875 956.183594 1104.367188 957.015625 1105.773438 C 957.851562 1107.183594 958.753906 1108.546875 959.722656 1109.863281 C 960.691406 1111.183594 961.722656 1112.453125 962.816406 1113.671875 C 963.910156 1114.886719 965.058594 1116.050781 966.269531 1117.15625 C 967.476562 1118.261719 968.734375 1119.304688 970.042969 1120.285156 C 971.355469 1121.265625 972.710938 1122.179688 974.109375 1123.03125 C 975.507812 1123.878906 976.945312 1124.65625 978.421875 1125.363281 C 979.898438 1126.070312 981.40625 1126.703125 982.945312 1127.261719 C 984.484375 1127.820312 986.042969 1128.304688 987.628906 1128.710938 C 989.214844 1129.117188 990.816406 1129.445312 992.433594 1129.691406 C 994.054688 1129.941406 995.679688 1130.109375 997.3125 1130.199219 C 998.949219 1130.289062 1000.582031 1130.296875 1002.21875 1130.226562 C 1003.851562 1130.15625 1005.480469 1130.003906 1007.101562 1129.773438 C 1093.277344 1117.386719 1173.441406 1098.84375 1241.550781 1072.355469 C 1241.613281 1072.355469 1241.679688 1072.355469 1241.746094 1072.355469 C 1396.277344 1011.742188 1499.921875 887.214844 1499.921875 718.78125 C 1499.921875 525.222656 1356.628906 380.730469 1177.589844 345.089844 C 1100.964844 172.746094 935.039062 49.90625 738.476562 49.90625 Z M 749.707031 749.636719 C 748.070312 749.660156 746.441406 749.765625 744.816406 749.953125 C 743.191406 750.136719 741.578125 750.402344 739.980469 750.746094 C 738.382812 751.089844 736.804688 751.511719 735.246094 752.011719 C 733.6875 752.507812 732.160156 753.082031 730.65625 753.730469 C 729.15625 754.378906 727.691406 755.101562 726.257812 755.894531 C 724.828125 756.6875 723.441406 757.546875 722.09375 758.476562 C 720.746094 759.402344 719.449219 760.398438 718.199219 761.453125 C 716.953125 762.507812 715.757812 763.625 714.617188 764.796875 C 713.480469 765.96875 712.398438 767.195312 711.382812 768.476562 C 710.363281 769.753906 709.40625 771.082031 708.519531 772.453125 C 707.628906 773.828125 706.808594 775.238281 706.058594 776.691406 C 705.308594 778.144531 704.632812 779.632812 704.027344 781.152344 C 703.421875 782.671875 702.894531 784.21875 702.441406 785.789062 C 701.988281 787.363281 701.613281 788.953125 701.320312 790.558594 C 701.023438 792.167969 700.804688 793.789062 700.667969 795.417969 C 700.527344 797.046875 700.472656 798.679688 700.492188 800.316406 L 700.492188 1263.9375 C 676.929688 1241.972656 651.964844 1220.949219 622.277344 1205.738281 C 620.820312 1204.992188 619.328125 1204.320312 617.804688 1203.71875 C 616.28125 1203.117188 614.730469 1202.59375 613.152344 1202.144531 C 611.578125 1201.695312 609.984375 1201.324219 608.371094 1201.035156 C 606.757812 1200.742188 605.136719 1200.53125 603.5 1200.398438 C 601.867188 1200.265625 600.230469 1200.214844 598.59375 1200.242188 C 596.957031 1200.269531 595.320312 1200.378906 593.695312 1200.566406 C 592.066406 1200.757812 590.453125 1201.027344 588.851562 1201.371094 C 587.25 1201.71875 585.667969 1202.144531 584.109375 1202.648438 C 582.550781 1203.152344 581.019531 1203.730469 579.515625 1204.382812 C 578.011719 1205.039062 576.546875 1205.761719 575.113281 1206.558594 C 573.683594 1207.359375 572.292969 1208.222656 570.945312 1209.15625 C 569.601562 1210.09375 568.304688 1211.089844 567.054688 1212.152344 C 565.808594 1213.214844 564.613281 1214.332031 563.476562 1215.511719 C 562.335938 1216.691406 561.257812 1217.921875 560.242188 1219.207031 C 559.226562 1220.492188 558.273438 1221.824219 557.386719 1223.203125 C 556.5 1224.582031 555.683594 1226 554.9375 1227.457031 C 554.191406 1228.917969 553.515625 1230.410156 552.917969 1231.933594 C 552.316406 1233.457031 551.792969 1235.007812 551.34375 1236.585938 C 550.894531 1238.160156 550.527344 1239.757812 550.234375 1241.367188 C 549.945312 1242.980469 549.734375 1244.605469 549.601562 1246.238281 C 549.46875 1247.871094 549.417969 1249.507812 549.445312 1251.144531 C 549.476562 1252.785156 549.585938 1254.417969 549.773438 1256.046875 C 549.964844 1257.671875 550.234375 1259.289062 550.582031 1260.890625 C 550.929688 1262.488281 551.355469 1264.070312 551.859375 1265.628906 C 552.363281 1267.1875 552.941406 1268.71875 553.59375 1270.222656 C 554.25 1271.726562 554.976562 1273.191406 555.773438 1274.625 C 556.570312 1276.054688 557.4375 1277.441406 558.371094 1278.789062 C 559.308594 1280.136719 560.304688 1281.433594 561.367188 1282.679688 C 562.429688 1283.929688 563.550781 1285.121094 564.730469 1286.257812 C 565.910156 1287.398438 567.140625 1288.472656 568.425781 1289.492188 C 569.710938 1290.507812 571.042969 1291.460938 572.421875 1292.34375 C 573.800781 1293.230469 575.21875 1294.046875 576.679688 1294.792969 C 626.820312 1320.484375 667.421875 1363.789062 691.316406 1411.578125 C 691.410156 1411.804688 691.507812 1412.035156 691.609375 1412.261719 C 703.582031 1435.410156 727.980469 1450.113281 752.929688 1450.34375 C 777.878906 1450.574219 805.144531 1433.984375 815.910156 1409.136719 C 835.277344 1366.339844 875.277344 1320.019531 924.101562 1294.597656 C 925.59375 1293.863281 927.046875 1293.058594 928.457031 1292.183594 C 929.871094 1291.304688 931.234375 1290.359375 932.550781 1289.34375 C 933.871094 1288.332031 935.132812 1287.253906 936.34375 1286.113281 C 937.554688 1284.976562 938.703125 1283.777344 939.796875 1282.523438 C 940.886719 1281.269531 941.910156 1279.964844 942.871094 1278.605469 C 943.832031 1277.25 944.722656 1275.847656 945.542969 1274.402344 C 946.367188 1272.957031 947.113281 1271.472656 947.785156 1269.953125 C 948.457031 1268.433594 949.054688 1266.882812 949.570312 1265.304688 C 950.089844 1263.726562 950.527344 1262.125 950.886719 1260.5 C 951.246094 1258.878906 951.523438 1257.242188 951.71875 1255.589844 C 951.914062 1253.9375 952.023438 1252.28125 952.054688 1250.621094 C 952.085938 1248.957031 952.03125 1247.296875 951.898438 1245.640625 C 951.761719 1243.984375 951.542969 1242.339844 951.246094 1240.703125 C 950.945312 1239.066406 950.5625 1237.453125 950.101562 1235.855469 C 949.644531 1234.257812 949.101562 1232.6875 948.484375 1231.144531 C 947.867188 1229.601562 947.175781 1228.089844 946.40625 1226.617188 C 945.640625 1225.144531 944.800781 1223.710938 943.890625 1222.320312 C 942.976562 1220.929688 942 1219.585938 940.957031 1218.292969 C 939.910156 1217 938.804688 1215.761719 937.636719 1214.582031 C 936.46875 1213.398438 935.242188 1212.277344 933.964844 1211.214844 C 932.683594 1210.15625 931.355469 1209.160156 929.976562 1208.234375 C 928.59375 1207.304688 927.171875 1206.449219 925.707031 1205.660156 C 924.242188 1204.875 922.742188 1204.164062 921.207031 1203.527344 C 919.671875 1202.890625 918.109375 1202.332031 916.515625 1201.851562 C 914.925781 1201.371094 913.316406 1200.972656 911.683594 1200.652344 C 910.050781 1200.332031 908.410156 1200.09375 906.753906 1199.9375 C 905.097656 1199.78125 903.441406 1199.707031 901.777344 1199.71875 C 900.113281 1199.726562 898.457031 1199.820312 896.804688 1199.996094 C 895.152344 1200.167969 893.511719 1200.425781 891.882812 1200.765625 C 890.253906 1201.101562 888.648438 1201.523438 887.0625 1202.019531 C 885.476562 1202.519531 883.921875 1203.097656 882.390625 1203.75 C 880.863281 1204.402344 879.371094 1205.132812 877.917969 1205.933594 C 847.945312 1221.539062 823.460938 1243.132812 800.484375 1265.5 L 800.484375 800.316406 C 800.503906 798.648438 800.445312 796.980469 800.300781 795.320312 C 800.15625 793.65625 799.929688 792.007812 799.621094 790.367188 C 799.3125 788.730469 798.921875 787.109375 798.453125 785.507812 C 797.980469 783.910156 797.429688 782.335938 796.800781 780.789062 C 796.175781 779.246094 795.46875 777.734375 794.691406 776.261719 C 793.910156 774.785156 793.058594 773.351562 792.136719 771.964844 C 791.214844 770.574219 790.222656 769.234375 789.164062 767.945312 C 788.109375 766.652344 786.988281 765.417969 785.808594 764.242188 C 784.628906 763.0625 783.390625 761.945312 782.097656 760.890625 C 780.808594 759.835938 779.464844 758.847656 778.074219 757.929688 C 776.683594 757.007812 775.25 756.160156 773.773438 755.382812 C 772.296875 754.605469 770.785156 753.90625 769.238281 753.28125 C 767.691406 752.652344 766.117188 752.105469 764.515625 751.640625 C 762.914062 751.171875 761.296875 750.785156 759.65625 750.476562 C 758.015625 750.171875 756.363281 749.949219 754.703125 749.808594 C 753.039062 749.667969 751.375 749.609375 749.707031 749.636719 Z M 749.707031 749.636719 " fill-opacity="1" fill-rule="nonzero"/></g></svg>