<svg xmlns="http://www.w3.org/2000/svg" xmlns:xlink="http://www.w3.org/1999/xlink" width="2000" zoomAndPan="magnify" viewBox="0 0 1500 1499.999933" height="2000" preserveAspectRatio="xMidYMid meet" version="1.0"><path fill="#004aad" d="M 133.433594 1069.125 L 955.964844 246.589844 L 1078.261719 124.296875 L 1139.410156 63.148438 C 1181.585938 20.972656 1237.128906 -0.113281 1292.640625 -0.113281 C 1348.152344 -0.113281 1403.695312 20.972656 1445.871094 63.148438 L 1445.917969 63.195312 C 1488.066406 105.363281 1509.140625 160.890625 1509.140625 216.386719 C 1509.140625 271.898438 1488.054688 327.441406 1445.882812 369.613281 L 439.902344 1375.59375 C 434.617188 1380.878906 428.234375 1384.398438 421.488281 1386.15625 L 52.90625 1507.144531 C 31.636719 1514.058594 8.789062 1502.421875 1.875 1481.152344 C -0.878906 1472.6875 -0.6875 1463.972656 1.875 1456.109375 C 42.289062 1332.457031 83.03125 1208.894531 123.605469 1085.292969 C 125.652344 1078.996094 129.097656 1073.546875 133.480469 1069.171875 Z M 1042.023438 275.277344 L 1233.75 467.003906 L 1298.671875 402.078125 L 1106.949219 210.355469 Z M 984.652344 332.648438 L 197.53125 1119.769531 L 103.839844 1405.183594 L 389.257812 1311.496094 L 1176.378906 524.375 Z M 1196.785156 120.519531 L 1164.320312 152.980469 L 1356.046875 344.707031 L 1388.507812 312.242188 C 1414.832031 285.917969 1427.996094 251.164062 1427.996094 216.386719 C 1427.996094 181.609375 1414.832031 146.855469 1388.507812 120.53125 L 1388.5 120.519531 C 1362.171875 94.191406 1327.421875 81.027344 1292.640625 81.027344 C 1257.859375 81.027344 1223.109375 94.191406 1196.78125 120.519531 Z M 1196.785156 120.519531 " fill-opacity="1" fill-rule="evenodd"/></svg>