<svg xmlns="http://www.w3.org/2000/svg" xmlns:xlink="http://www.w3.org/1999/xlink" width="2000" zoomAndPan="magnify" viewBox="0 0 1500 1499.999933" height="2000" preserveAspectRatio="xMidYMid meet" version="1.0"><defs><clipPath id="0b4fb5e9e9"><path d="M 367 398 L 1134 398 L 1134 1209.375 L 367 1209.375 Z M 367 398 " clip-rule="nonzero"/></clipPath></defs><path fill="#004aad" d="M 1499.386719 956.15625 C 1496.902344 889.175781 1459.6875 828.359375 1398.570312 783.484375 C 1370.328125 762.78125 1337.007812 745.472656 1299.632812 732.550781 C 1354.316406 686.734375 1389.113281 617.976562 1389.113281 541.042969 C 1389.113281 403.132812 1277.3125 291.3125 1139.402344 291.3125 C 1001.476562 291.3125 889.671875 403.132812 889.671875 541.042969 C 889.671875 617.976562 924.488281 686.734375 979.171875 732.550781 C 941.78125 745.472656 908.492188 762.78125 880.269531 783.484375 C 819.152344 828.339844 781.992188 889.175781 779.414062 956.15625 C 778.507812 979.667969 781.105469 999.464844 786.578125 1016.332031 C 879.988281 1039.417969 1003.695312 1053.476562 1139.402344 1053.476562 C 1275.445312 1053.476562 1399.421875 1039.347656 1492.917969 1016.171875 C 1497.929688 999.324219 1500.257812 979.5625 1499.386719 956.15625 " fill-opacity="1" fill-rule="nonzero"/><path fill="#004aad" d="M 721.035156 956.15625 C 718.546875 889.175781 681.351562 828.359375 620.199219 783.484375 C 591.976562 762.78125 558.652344 745.472656 521.28125 732.550781 C 575.964844 686.734375 610.761719 617.976562 610.761719 541.042969 C 610.761719 403.132812 498.957031 291.3125 361.050781 291.3125 C 223.121094 291.3125 111.320312 403.132812 111.320312 541.042969 C 111.320312 617.976562 146.132812 686.734375 200.816406 732.550781 C 163.425781 745.472656 130.140625 762.78125 101.917969 783.484375 C 40.800781 828.339844 3.621094 889.175781 1.0625 956.15625 C 0.15625 979.667969 2.75 999.464844 8.226562 1016.332031 C 101.632812 1039.417969 225.34375 1053.476562 361.050781 1053.476562 C 497.09375 1053.476562 621.070312 1039.347656 714.566406 1016.171875 C 719.578125 999.324219 721.90625 979.5625 721.035156 956.15625 " fill-opacity="1" fill-rule="nonzero"/><g clip-path="url(#0b4fb5e9e9)"><path fill="#00bf63" d="M 1132.914062 1105.707031 C 1130.265625 1034.496094 1090.707031 969.824219 1025.714844 922.140625 C 995.71875 900.121094 960.296875 881.726562 920.558594 867.972656 C 978.691406 819.296875 1015.675781 746.199219 1015.675781 664.414062 C 1015.675781 517.816406 896.835938 398.957031 750.234375 398.957031 C 603.597656 398.957031 484.757812 517.816406 484.757812 664.414062 C 484.757812 746.199219 521.761719 819.296875 579.890625 867.992188 C 540.152344 881.726562 504.753906 900.121094 474.769531 922.140625 C 409.796875 969.824219 370.273438 1034.496094 367.535156 1105.707031 C 366.59375 1130.695312 369.347656 1151.753906 375.160156 1169.648438 C 474.46875 1194.210938 605.960938 1209.140625 750.234375 1209.140625 C 894.84375 1209.140625 1026.640625 1194.121094 1126.019531 1169.488281 C 1131.351562 1151.558594 1133.820312 1130.570312 1132.914062 1105.707031 " fill-opacity="1" fill-rule="nonzero"/></g></svg>