<svg xmlns="http://www.w3.org/2000/svg" xmlns:xlink="http://www.w3.org/1999/xlink" width="2000" zoomAndPan="magnify" viewBox="0 0 1500 1499.999933" height="2000" preserveAspectRatio="xMidYMid meet" version="1.0"><defs><clipPath id="eb537d38b3"><path d="M 0 147.1875 L 1500 147.1875 L 1500 1353 L 0 1353 Z M 0 147.1875 " clip-rule="nonzero"/></clipPath></defs><g clip-path="url(#eb537d38b3)"><path fill="#004aad" d="M 750 147.191406 C 633.378906 147.191406 516.125 191.667969 427.210938 280.582031 C 361.085938 346.707031 320.996094 428.734375 304 514.273438 C 131.449219 547.746094 0.558594 698.441406 0.558594 880.339844 C 0.558594 1086.710938 168.90625 1255.0625 375.277344 1255.0625 L 554.492188 1255.0625 C 556.109375 1255.089844 557.722656 1255.035156 559.332031 1254.898438 C 560.941406 1254.757812 562.542969 1254.542969 564.128906 1254.25 C 565.71875 1253.953125 567.289062 1253.582031 568.839844 1253.128906 C 570.390625 1252.679688 571.917969 1252.152344 573.417969 1251.550781 C 574.917969 1250.949219 576.382812 1250.273438 577.816406 1249.527344 C 579.25 1248.777344 580.640625 1247.960938 581.992188 1247.078125 C 583.34375 1246.191406 584.648438 1245.242188 585.90625 1244.226562 C 587.164062 1243.210938 588.367188 1242.136719 589.519531 1241.003906 C 590.667969 1239.871094 591.761719 1238.683594 592.792969 1237.4375 C 593.828125 1236.195312 594.796875 1234.902344 595.703125 1233.566406 C 596.605469 1232.226562 597.445312 1230.851562 598.210938 1229.429688 C 598.980469 1228.007812 599.675781 1226.550781 600.300781 1225.058594 C 600.921875 1223.570312 601.472656 1222.050781 601.945312 1220.507812 C 602.417969 1218.960938 602.8125 1217.394531 603.132812 1215.8125 C 603.449219 1214.226562 603.691406 1212.632812 603.847656 1211.023438 C 604.007812 1209.414062 604.089844 1207.804688 604.089844 1206.1875 C 604.089844 1204.574219 604.007812 1202.964844 603.847656 1201.355469 C 603.691406 1199.746094 603.449219 1198.148438 603.132812 1196.566406 C 602.8125 1194.980469 602.417969 1193.417969 601.945312 1191.875 C 601.472656 1190.328125 600.921875 1188.8125 600.300781 1187.320312 C 599.675781 1185.828125 598.980469 1184.371094 598.210938 1182.949219 C 597.445312 1181.527344 596.605469 1180.148438 595.703125 1178.808594 C 594.796875 1177.472656 593.828125 1176.179688 592.792969 1174.9375 C 591.761719 1173.695312 590.667969 1172.503906 589.519531 1171.371094 C 588.367188 1170.238281 587.164062 1169.164062 585.90625 1168.148438 C 584.648438 1167.132812 583.34375 1166.183594 581.992188 1165.296875 C 580.640625 1164.414062 579.25 1163.59375 577.816406 1162.847656 C 576.382812 1162.101562 574.917969 1161.425781 573.417969 1160.824219 C 571.917969 1160.222656 570.390625 1159.695312 568.839844 1159.246094 C 567.289062 1158.796875 565.71875 1158.421875 564.128906 1158.125 C 562.542969 1157.832031 560.941406 1157.617188 559.332031 1157.480469 C 557.722656 1157.34375 556.109375 1157.285156 554.492188 1157.308594 L 375.277344 1157.308594 C 221.738281 1157.308594 98.3125 1033.882812 98.3125 880.34375 C 98.3125 735.34375 208.585938 617.214844 349.820312 604.394531 C 351.195312 604.257812 352.558594 604.066406 353.914062 603.816406 C 355.269531 603.570312 356.613281 603.261719 357.945312 602.898438 C 359.273438 602.539062 360.585938 602.117188 361.878906 601.644531 C 363.175781 601.171875 364.449219 600.644531 365.699219 600.0625 C 366.949219 599.480469 368.171875 598.847656 369.367188 598.160156 C 370.5625 597.476562 371.730469 596.742188 372.863281 595.960938 C 374 595.175781 375.097656 594.34375 376.160156 593.46875 C 377.226562 592.59375 378.25 591.671875 379.238281 590.710938 C 380.222656 589.746094 381.167969 588.742188 382.066406 587.699219 C 382.96875 586.65625 383.824219 585.578125 384.636719 584.464844 C 385.445312 583.347656 386.207031 582.199219 386.917969 581.019531 C 387.632812 579.839844 388.292969 578.632812 388.90625 577.394531 C 389.515625 576.160156 390.074219 574.898438 390.578125 573.617188 C 391.082031 572.332031 391.53125 571.03125 391.925781 569.710938 C 392.320312 568.386719 392.65625 567.050781 392.9375 565.703125 C 393.21875 564.351562 393.441406 562.992188 393.609375 561.625 C 402.601562 484.152344 436.882812 408.886719 496.453125 349.316406 C 566.601562 279.171875 658.140625 244.945312 750 244.945312 C 841.859375 244.945312 932.824219 279.097656 1003.039062 349.316406 C 1084.179688 430.457031 1118.515625 540.699219 1105.882812 646.140625 C 1105.777344 646.996094 1105.691406 647.855469 1105.628906 648.714844 C 1105.566406 649.578125 1105.527344 650.4375 1105.511719 651.300781 C 1105.492188 652.164062 1105.5 653.023438 1105.527344 653.886719 C 1105.558594 654.75 1105.609375 655.609375 1105.683594 656.46875 C 1105.757812 657.328125 1105.855469 658.183594 1105.976562 659.039062 C 1106.09375 659.890625 1106.238281 660.742188 1106.402344 661.589844 C 1106.566406 662.433594 1106.753906 663.277344 1106.964844 664.113281 C 1107.171875 664.949219 1107.402344 665.78125 1107.65625 666.605469 C 1107.910156 667.429688 1108.183594 668.246094 1108.480469 669.054688 C 1108.777344 669.867188 1109.097656 670.667969 1109.433594 671.460938 C 1109.773438 672.253906 1110.132812 673.035156 1110.515625 673.808594 C 1110.894531 674.582031 1111.296875 675.347656 1111.714844 676.101562 C 1112.136719 676.851562 1112.578125 677.59375 1113.039062 678.324219 C 1113.496094 679.054688 1113.976562 679.769531 1114.476562 680.472656 C 1114.972656 681.175781 1115.488281 681.867188 1116.023438 682.542969 C 1116.558594 683.21875 1117.109375 683.882812 1117.679688 684.53125 C 1118.25 685.175781 1118.835938 685.808594 1119.4375 686.425781 C 1120.042969 687.046875 1120.660156 687.644531 1121.296875 688.230469 C 1121.929688 688.8125 1122.582031 689.378906 1123.246094 689.925781 C 1123.910156 690.476562 1124.589844 691.007812 1125.28125 691.519531 C 1125.972656 692.035156 1126.679688 692.527344 1127.398438 693.007812 C 1128.117188 693.480469 1128.851562 693.9375 1129.59375 694.378906 C 1130.335938 694.8125 1131.089844 695.230469 1131.855469 695.628906 C 1132.621094 696.027344 1133.398438 696.402344 1134.183594 696.757812 C 1134.96875 697.117188 1135.761719 697.453125 1136.566406 697.765625 C 1137.367188 698.082031 1138.179688 698.375 1138.996094 698.644531 C 1139.816406 698.917969 1140.640625 699.164062 1141.472656 699.394531 C 1142.304688 699.621094 1143.140625 699.828125 1143.984375 700.011719 C 1144.828125 700.195312 1145.675781 700.355469 1146.523438 700.496094 C 1147.375 700.632812 1148.230469 700.746094 1149.089844 700.839844 C 1149.945312 700.933594 1150.804688 701.003906 1151.664062 701.054688 C 1152.527344 701.101562 1153.386719 701.125 1154.25 701.128906 L 1173.597656 701.128906 C 1300.804688 701.128906 1401.6875 802.011719 1401.6875 929.21875 C 1401.6875 1056.425781 1300.804688 1157.308594 1173.597656 1157.308594 L 945.507812 1157.308594 C 943.890625 1157.285156 942.277344 1157.34375 940.667969 1157.480469 C 939.058594 1157.617188 937.457031 1157.832031 935.871094 1158.125 C 934.28125 1158.421875 932.710938 1158.792969 931.160156 1159.246094 C 929.609375 1159.695312 928.082031 1160.222656 926.582031 1160.824219 C 925.082031 1161.425781 923.617188 1162.101562 922.183594 1162.847656 C 920.75 1163.59375 919.359375 1164.414062 918.007812 1165.296875 C 916.65625 1166.183594 915.351562 1167.132812 914.09375 1168.148438 C 912.835938 1169.164062 911.632812 1170.238281 910.480469 1171.371094 C 909.332031 1172.503906 908.238281 1173.695312 907.207031 1174.9375 C 906.171875 1176.179688 905.203125 1177.46875 904.296875 1178.808594 C 903.394531 1180.144531 902.554688 1181.527344 901.789062 1182.949219 C 901.019531 1184.371094 900.324219 1185.828125 899.699219 1187.316406 C 899.078125 1188.808594 898.527344 1190.328125 898.054688 1191.871094 C 897.582031 1193.414062 897.1875 1194.976562 896.867188 1196.5625 C 896.550781 1198.148438 896.308594 1199.742188 896.152344 1201.351562 C 895.992188 1202.960938 895.910156 1204.570312 895.910156 1206.1875 C 895.910156 1207.804688 895.992188 1209.414062 896.152344 1211.023438 C 896.3125 1212.632812 896.550781 1214.226562 896.867188 1215.8125 C 897.1875 1217.398438 897.582031 1218.960938 898.054688 1220.507812 C 898.527344 1222.050781 899.078125 1223.570312 899.699219 1225.0625 C 900.324219 1226.550781 901.019531 1228.007812 901.789062 1229.429688 C 902.554688 1230.851562 903.394531 1232.226562 904.296875 1233.566406 C 905.203125 1234.90625 906.171875 1236.195312 907.207031 1237.441406 C 908.238281 1238.683594 909.332031 1239.871094 910.480469 1241.003906 C 911.632812 1242.136719 912.835938 1243.210938 914.09375 1244.226562 C 915.351562 1245.242188 916.65625 1246.191406 918.007812 1247.078125 C 919.359375 1247.960938 920.75 1248.777344 922.183594 1249.527344 C 923.617188 1250.273438 925.082031 1250.949219 926.582031 1251.550781 C 928.082031 1252.152344 929.609375 1252.675781 931.160156 1253.128906 C 932.710938 1253.578125 934.28125 1253.953125 935.871094 1254.246094 C 937.457031 1254.542969 939.058594 1254.757812 940.667969 1254.894531 C 942.277344 1255.03125 943.890625 1255.089844 945.507812 1255.0625 L 1173.597656 1255.0625 C 1353.269531 1255.0625 1499.441406 1108.890625 1499.441406 929.21875 C 1499.441406 759.644531 1368.808594 621.605469 1203.128906 606.429688 C 1203.894531 488.488281 1162.003906 370.304688 1072.28125 280.582031 C 983.441406 191.738281 866.621094 147.191406 750 147.191406 Z M 750 668.542969 C 733.703125 668.542969 725.085938 673.785156 716.90625 681.269531 L 537.691406 844.191406 C 517 863.398438 517.363281 894.566406 534.636719 913.433594 C 551.914062 932.300781 584.925781 933.667969 603.878906 916.488281 L 701.125 827.898438 L 701.125 1303.9375 C 701.125 1330.933594 723.003906 1352.816406 750 1352.816406 C 777 1352.816406 798.875 1330.933594 798.875 1303.9375 L 798.875 827.898438 L 896.121094 916.488281 C 915.078125 933.664062 947.089844 931.339844 965.363281 913.433594 C 984.621094 894.566406 981.09375 861.558594 962.308594 844.191406 L 783.09375 681.269531 C 773.410156 672.40625 766.296875 668.542969 750 668.542969 Z M 750 668.542969 " fill-opacity="1" fill-rule="nonzero"/></g></svg>