<svg xmlns="http://www.w3.org/2000/svg" xmlns:xlink="http://www.w3.org/1999/xlink" width="2000" zoomAndPan="magnify" viewBox="0 0 1500 1499.999933" height="2000" preserveAspectRatio="xMidYMid meet" version="1.0"><defs><clipPath id="09f7be269a"><path d="M 0 37 L 1445 37 L 1445 1408 L 0 1408 Z M 0 37 " clip-rule="nonzero"/></clipPath><clipPath id="2e64fd5698"><path d="M 1441.574219 1249.351562 C 1380.980469 1153.59375 1286.445312 1089.777344 1174.257812 1066.035156 C 1235.980469 1031 1277.777344 964.777344 1277.777344 888.890625 C 1277.777344 839.683594 1260.242188 794.5 1231.09375 759.257812 L 1425.925781 759.257812 C 1430.832031 759.257812 1435.554688 757.316406 1439.019531 753.832031 C 1442.480469 750.351562 1444.445312 745.648438 1444.445312 740.742188 L 1444.445312 611.109375 C 1444.445312 607.609375 1443.445312 604.167969 1441.574219 601.203125 C 1380.980469 505.445312 1286.445312 441.628906 1174.257812 417.890625 C 1235.980469 382.851562 1277.777344 316.628906 1277.777344 240.742188 C 1277.777344 128.425781 1186.390625 37.035156 1074.074219 37.035156 C 961.757812 37.035156 870.371094 128.425781 870.371094 240.742188 C 870.371094 317.019531 912.574219 383.535156 974.777344 418.445312 C 952.59375 423.425781 930.777344 430.074219 909.460938 438.425781 C 878.296875 365.816406 806.109375 314.816406 722.222656 314.816406 C 638.296875 314.816406 566.09375 365.851562 534.925781 438.519531 C 513.757812 430.074219 491.980469 423.40625 469.742188 418.390625 C 531.90625 383.464844 574.074219 316.980469 574.074219 240.742188 C 574.074219 128.425781 482.683594 37.035156 370.371094 37.035156 C 258.054688 37.035156 166.667969 128.425781 166.667969 240.742188 C 166.667969 317.445312 209.316406 384.332031 272.128906 419.074219 C 165.128906 444.183594 67.183594 508.925781 3.332031 600.519531 C 1.148438 603.628906 0 607.316406 0 611.109375 L 0 740.742188 C 0 750.960938 8.296875 759.257812 18.519531 759.257812 L 213.351562 759.257812 C 184.203125 794.5 166.667969 839.683594 166.667969 888.890625 C 166.667969 965.59375 209.316406 1032.480469 272.128906 1067.222656 C 165.128906 1092.332031 67.183594 1157.074219 3.332031 1248.667969 C 1.148438 1251.777344 0 1255.460938 0 1259.257812 L 0 1388.890625 C 0 1399.109375 8.296875 1407.40625 18.519531 1407.40625 L 1425.925781 1407.40625 C 1430.832031 1407.40625 1435.554688 1405.460938 1439.019531 1401.980469 C 1442.480469 1398.5 1444.445312 1393.796875 1444.445312 1388.890625 L 1444.445312 1259.257812 C 1444.445312 1255.757812 1443.445312 1252.316406 1441.574219 1249.351562 Z M 1074.074219 1055.554688 C 982.183594 1055.554688 907.40625 980.777344 907.40625 888.890625 C 907.40625 797 982.183594 722.222656 1074.074219 722.222656 C 1165.960938 722.222656 1240.742188 797 1240.742188 888.890625 C 1240.742188 980.777344 1165.960938 1055.554688 1074.074219 1055.554688 Z M 722.925781 1227.332031 C 662.277344 1143.777344 573.90625 1087.90625 470.574219 1066.035156 C 484.816406 1057.964844 497.925781 1048.183594 509.757812 1037.035156 L 934.703125 1037.035156 C 947.09375 1048.703125 960.832031 1058.925781 975.832031 1067.222656 C 877.332031 1090.332031 786.535156 1147.019531 722.925781 1227.332031 Z M 540.890625 1000 C 561.796875 968.019531 574.074219 929.890625 574.074219 888.890625 C 574.074219 843.425781 558.925781 801.554688 533.667969 767.628906 C 591.796875 737.960938 656.519531 722.222656 722.222656 722.222656 C 788.722656 722.222656 853.332031 738.148438 910.425781 768.109375 C 885.371094 801.945312 870.371094 843.648438 870.371094 888.890625 C 870.371094 929.890625 882.648438 968.019531 903.554688 1000 Z M 907.40625 240.742188 C 907.40625 148.851562 982.183594 74.074219 1074.074219 74.074219 C 1165.960938 74.074219 1240.742188 148.851562 1240.742188 240.742188 C 1240.742188 332.628906 1165.960938 407.40625 1074.074219 407.40625 C 982.183594 407.40625 907.40625 332.628906 907.40625 240.742188 Z M 1074.074219 444.445312 C 1214.832031 444.445312 1336 507.09375 1407.40625 616.535156 L 1407.40625 722.222656 L 1190.832031 722.222656 C 1157.742188 698.960938 1117.519531 685.183594 1074.074219 685.183594 C 1020.667969 685.183594 972.148438 706 935.777344 739.742188 C 900.035156 719.980469 861.480469 705.40625 821.257812 696.351562 C 883.628906 661.5 925.925781 594.890625 925.925781 518.519531 C 925.925781 503.128906 924.074219 488.203125 920.816406 473.796875 C 969.554688 454.390625 1021.019531 444.445312 1074.074219 444.445312 Z M 722.222656 351.851562 C 814.109375 351.851562 888.890625 426.628906 888.890625 518.519531 C 888.890625 610.40625 814.109375 685.183594 722.222656 685.183594 C 630.332031 685.183594 555.554688 610.40625 555.554688 518.519531 C 555.554688 426.628906 630.332031 351.851562 722.222656 351.851562 Z M 203.703125 240.742188 C 203.703125 148.851562 278.480469 74.074219 370.371094 74.074219 C 462.257812 74.074219 537.035156 148.851562 537.035156 240.742188 C 537.035156 332.628906 462.257812 407.40625 370.371094 407.40625 C 278.480469 407.40625 203.703125 332.628906 203.703125 240.742188 Z M 37.035156 617 C 113.667969 510.425781 240.832031 444.445312 370.371094 444.445312 C 424.054688 444.445312 475.480469 454.390625 523.59375 473.945312 C 520.371094 488.316406 518.519531 503.183594 518.519531 518.519531 C 518.519531 594.90625 560.832031 661.519531 623.183594 696.371094 C 583.09375 705.351562 544.371094 719.742188 508.109375 739.257812 C 471.816406 705.816406 423.519531 685.183594 370.371094 685.183594 C 326.925781 685.183594 286.722656 698.960938 253.609375 722.222656 L 37.035156 722.222656 Z M 203.703125 888.890625 C 203.703125 797 278.480469 722.222656 370.371094 722.222656 C 462.257812 722.222656 537.035156 797 537.035156 888.890625 C 537.035156 980.777344 462.257812 1055.554688 370.371094 1055.554688 C 278.480469 1055.554688 203.703125 980.777344 203.703125 888.890625 Z M 37.035156 1265.148438 C 113.667969 1158.574219 240.832031 1092.59375 370.371094 1092.59375 C 511.128906 1092.59375 632.296875 1155.242188 703.703125 1264.683594 L 703.703125 1370.371094 L 37.035156 1370.371094 Z M 740.742188 1370.371094 L 740.742188 1265.148438 C 817.371094 1158.574219 944.535156 1092.59375 1074.074219 1092.59375 C 1214.832031 1092.59375 1336 1155.242188 1407.40625 1264.683594 L 1407.40625 1370.371094 Z M 740.742188 1370.371094 " clip-rule="nonzero"/></clipPath><linearGradient x1="36.164877" gradientTransform="matrix(18.518517, 0, 0, 18.518517, -203.703658, -185.185192)" y1="5.997429" x2="57.064864" gradientUnits="userSpaceOnUse" y2="93.617476" id="3fadfe63bf"><stop stop-opacity="1" stop-color="rgb(100%, 90.979004%, 78.039551%)" offset="0"/><stop stop-opacity="1" stop-color="rgb(100%, 90.979004%, 78.039551%)" offset="0.0625"/><stop stop-opacity="1" stop-color="rgb(99.983215%, 90.925598%, 77.934265%)" offset="0.078125"/><stop stop-opacity="1" stop-color="rgb(99.934387%, 90.765381%, 77.62146%)" offset="0.0820312"/><stop stop-opacity="1" stop-color="rgb(99.902344%, 90.658569%, 77.41394%)" offset="0.0859375"/><stop stop-opacity="1" stop-color="rgb(99.8703%, 90.551758%, 77.204895%)" offset="0.0898437"/><stop stop-opacity="1" stop-color="rgb(99.838257%, 90.444946%, 76.99585%)" offset="0.09375"/><stop stop-opacity="1" stop-color="rgb(99.806213%, 90.336609%, 76.786804%)" offset="0.0976562"/><stop stop-opacity="1" stop-color="rgb(99.77417%, 90.229797%, 76.579285%)" offset="0.101562"/><stop stop-opacity="1" stop-color="rgb(99.742126%, 90.122986%, 76.370239%)" offset="0.105469"/><stop stop-opacity="1" stop-color="rgb(99.710083%, 90.016174%, 76.161194%)" offset="0.109375"/><stop stop-opacity="1" stop-color="rgb(99.67804%, 89.909363%, 75.952148%)" offset="0.113281"/><stop stop-opacity="1" stop-color="rgb(99.645996%, 89.802551%, 75.743103%)" offset="0.117187"/><stop stop-opacity="1" stop-color="rgb(99.613953%, 89.694214%, 75.534058%)" offset="0.121094"/><stop stop-opacity="1" stop-color="rgb(99.581909%, 89.587402%, 75.326538%)" offset="0.125"/><stop stop-opacity="1" stop-color="rgb(99.549866%, 89.480591%, 75.117493%)" offset="0.128906"/><stop stop-opacity="1" stop-color="rgb(99.517822%, 89.373779%, 74.908447%)" offset="0.132812"/><stop stop-opacity="1" stop-color="rgb(99.485779%, 89.266968%, 74.699402%)" offset="0.136719"/><stop stop-opacity="1" stop-color="rgb(99.453735%, 89.160156%, 74.491882%)" offset="0.140625"/><stop stop-opacity="1" stop-color="rgb(99.421692%, 89.053345%, 74.282837%)" offset="0.144531"/><stop stop-opacity="1" stop-color="rgb(99.389648%, 88.946533%, 74.073792%)" offset="0.148438"/><stop stop-opacity="1" stop-color="rgb(99.357605%, 88.838196%, 73.864746%)" offset="0.152344"/><stop stop-opacity="1" stop-color="rgb(99.325562%, 88.731384%, 73.655701%)" offset="0.15625"/><stop stop-opacity="1" stop-color="rgb(99.293518%, 88.624573%, 73.446655%)" offset="0.160156"/><stop stop-opacity="1" stop-color="rgb(99.261475%, 88.517761%, 73.239136%)" offset="0.164062"/><stop stop-opacity="1" stop-color="rgb(99.229431%, 88.41095%, 73.03009%)" offset="0.167969"/><stop stop-opacity="1" stop-color="rgb(99.197388%, 88.304138%, 72.821045%)" offset="0.171875"/><stop stop-opacity="1" stop-color="rgb(99.165344%, 88.195801%, 72.612%)" offset="0.175781"/><stop stop-opacity="1" stop-color="rgb(99.133301%, 88.088989%, 72.40448%)" offset="0.179687"/><stop stop-opacity="1" stop-color="rgb(99.101257%, 87.982178%, 72.195435%)" offset="0.183594"/><stop stop-opacity="1" stop-color="rgb(99.069214%, 87.875366%, 71.986389%)" offset="0.1875"/><stop stop-opacity="1" stop-color="rgb(99.03717%, 87.768555%, 71.777344%)" offset="0.191406"/><stop stop-opacity="1" stop-color="rgb(99.005127%, 87.661743%, 71.568298%)" offset="0.195312"/><stop stop-opacity="1" stop-color="rgb(98.973083%, 87.554932%, 71.359253%)" offset="0.199219"/><stop stop-opacity="1" stop-color="rgb(98.94104%, 87.44812%, 71.151733%)" offset="0.203125"/><stop stop-opacity="1" stop-color="rgb(98.908997%, 87.339783%, 70.942688%)" offset="0.207031"/><stop stop-opacity="1" stop-color="rgb(98.876953%, 87.232971%, 70.733643%)" offset="0.210938"/><stop stop-opacity="1" stop-color="rgb(98.84491%, 87.12616%, 70.524597%)" offset="0.214844"/><stop stop-opacity="1" stop-color="rgb(98.812866%, 87.019348%, 70.315552%)" offset="0.21875"/><stop stop-opacity="1" stop-color="rgb(98.780823%, 86.912537%, 70.106506%)" offset="0.222656"/><stop stop-opacity="1" stop-color="rgb(98.748779%, 86.805725%, 69.898987%)" offset="0.226562"/><stop stop-opacity="1" stop-color="rgb(98.71521%, 86.697388%, 69.689941%)" offset="0.230469"/><stop stop-opacity="1" stop-color="rgb(98.683167%, 86.590576%, 69.480896%)" offset="0.234375"/><stop stop-opacity="1" stop-color="rgb(98.651123%, 86.483765%, 69.271851%)" offset="0.238281"/><stop stop-opacity="1" stop-color="rgb(98.61908%, 86.376953%, 69.064331%)" offset="0.242187"/><stop stop-opacity="1" stop-color="rgb(98.587036%, 86.270142%, 68.855286%)" offset="0.246094"/><stop stop-opacity="1" stop-color="rgb(98.554993%, 86.16333%, 68.64624%)" offset="0.25"/><stop stop-opacity="1" stop-color="rgb(98.522949%, 86.054993%, 68.437195%)" offset="0.253906"/><stop stop-opacity="1" stop-color="rgb(98.490906%, 85.948181%, 68.228149%)" offset="0.257812"/><stop stop-opacity="1" stop-color="rgb(98.458862%, 85.84137%, 68.019104%)" offset="0.261719"/><stop stop-opacity="1" stop-color="rgb(98.426819%, 85.734558%, 67.811584%)" offset="0.265625"/><stop stop-opacity="1" stop-color="rgb(98.394775%, 85.627747%, 67.602539%)" offset="0.269531"/><stop stop-opacity="1" stop-color="rgb(98.362732%, 85.520935%, 67.393494%)" offset="0.273437"/><stop stop-opacity="1" stop-color="rgb(98.330688%, 85.414124%, 67.184448%)" offset="0.277344"/><stop stop-opacity="1" stop-color="rgb(98.298645%, 85.307312%, 66.976929%)" offset="0.28125"/><stop stop-opacity="1" stop-color="rgb(98.266602%, 85.198975%, 66.767883%)" offset="0.285156"/><stop stop-opacity="1" stop-color="rgb(98.234558%, 85.092163%, 66.558838%)" offset="0.289062"/><stop stop-opacity="1" stop-color="rgb(98.202515%, 84.985352%, 66.349792%)" offset="0.292969"/><stop stop-opacity="1" stop-color="rgb(98.170471%, 84.87854%, 66.140747%)" offset="0.296875"/><stop stop-opacity="1" stop-color="rgb(98.138428%, 84.771729%, 65.931702%)" offset="0.300781"/><stop stop-opacity="1" stop-color="rgb(98.106384%, 84.664917%, 65.724182%)" offset="0.304688"/><stop stop-opacity="1" stop-color="rgb(98.074341%, 84.55658%, 65.515137%)" offset="0.308594"/><stop stop-opacity="1" stop-color="rgb(98.042297%, 84.449768%, 65.306091%)" offset="0.3125"/><stop stop-opacity="1" stop-color="rgb(98.010254%, 84.342957%, 65.097046%)" offset="0.316406"/><stop stop-opacity="1" stop-color="rgb(97.97821%, 84.236145%, 64.889526%)" offset="0.320312"/><stop stop-opacity="1" stop-color="rgb(97.946167%, 84.129333%, 64.680481%)" offset="0.324219"/><stop stop-opacity="1" stop-color="rgb(97.914124%, 84.022522%, 64.471436%)" offset="0.328125"/><stop stop-opacity="1" stop-color="rgb(97.88208%, 83.91571%, 64.26239%)" offset="0.332031"/><stop stop-opacity="1" stop-color="rgb(97.850037%, 83.808899%, 64.053345%)" offset="0.335938"/><stop stop-opacity="1" stop-color="rgb(97.817993%, 83.700562%, 63.844299%)" offset="0.339844"/><stop stop-opacity="1" stop-color="rgb(97.78595%, 83.59375%, 63.63678%)" offset="0.34375"/><stop stop-opacity="1" stop-color="rgb(97.753906%, 83.486938%, 63.427734%)" offset="0.347656"/><stop stop-opacity="1" stop-color="rgb(97.721863%, 83.380127%, 63.218689%)" offset="0.351562"/><stop stop-opacity="1" stop-color="rgb(97.689819%, 83.273315%, 63.009644%)" offset="0.355469"/><stop stop-opacity="1" stop-color="rgb(97.657776%, 83.166504%, 62.802124%)" offset="0.359375"/><stop stop-opacity="1" stop-color="rgb(97.618103%, 83.050537%, 62.568665%)" offset="0.363281"/><stop stop-opacity="1" stop-color="rgb(97.579956%, 82.936096%, 62.336731%)" offset="0.367188"/><stop stop-opacity="1" stop-color="rgb(97.540283%, 82.818604%, 62.101746%)" offset="0.371094"/><stop stop-opacity="1" stop-color="rgb(97.50061%, 82.702637%, 61.86676%)" offset="0.375"/><stop stop-opacity="1" stop-color="rgb(97.460938%, 82.58667%, 61.630249%)" offset="0.378906"/><stop stop-opacity="1" stop-color="rgb(97.421265%, 82.470703%, 61.395264%)" offset="0.382812"/><stop stop-opacity="1" stop-color="rgb(97.381592%, 82.35321%, 61.158752%)" offset="0.386719"/><stop stop-opacity="1" stop-color="rgb(97.341919%, 82.237244%, 60.923767%)" offset="0.390625"/><stop stop-opacity="1" stop-color="rgb(97.302246%, 82.121277%, 60.688782%)" offset="0.394531"/><stop stop-opacity="1" stop-color="rgb(97.262573%, 82.00531%, 60.453796%)" offset="0.398437"/><stop stop-opacity="1" stop-color="rgb(97.2229%, 81.887817%, 60.217285%)" offset="0.402344"/><stop stop-opacity="1" stop-color="rgb(97.183228%, 81.771851%, 59.9823%)" offset="0.40625"/><stop stop-opacity="1" stop-color="rgb(97.142029%, 81.655884%, 59.745789%)" offset="0.410156"/><stop stop-opacity="1" stop-color="rgb(97.102356%, 81.539917%, 59.510803%)" offset="0.414062"/><stop stop-opacity="1" stop-color="rgb(97.062683%, 81.422424%, 59.274292%)" offset="0.417969"/><stop stop-opacity="1" stop-color="rgb(97.02301%, 81.306458%, 59.039307%)" offset="0.421875"/><stop stop-opacity="1" stop-color="rgb(96.983337%, 81.190491%, 58.804321%)" offset="0.425781"/><stop stop-opacity="1" stop-color="rgb(96.943665%, 81.074524%, 58.569336%)" offset="0.429688"/><stop stop-opacity="1" stop-color="rgb(96.903992%, 80.957031%, 58.332825%)" offset="0.433594"/><stop stop-opacity="1" stop-color="rgb(96.864319%, 80.841064%, 58.097839%)" offset="0.4375"/><stop stop-opacity="1" stop-color="rgb(96.824646%, 80.725098%, 57.861328%)" offset="0.441406"/><stop stop-opacity="1" stop-color="rgb(96.784973%, 80.609131%, 57.626343%)" offset="0.445312"/><stop stop-opacity="1" stop-color="rgb(96.7453%, 80.491638%, 57.391357%)" offset="0.449219"/><stop stop-opacity="1" stop-color="rgb(96.705627%, 80.375671%, 57.156372%)" offset="0.453125"/><stop stop-opacity="1" stop-color="rgb(96.665955%, 80.259705%, 56.919861%)" offset="0.457031"/><stop stop-opacity="1" stop-color="rgb(96.626282%, 80.143738%, 56.684875%)" offset="0.460938"/><stop stop-opacity="1" stop-color="rgb(96.586609%, 80.026245%, 56.448364%)" offset="0.464844"/><stop stop-opacity="1" stop-color="rgb(96.546936%, 79.910278%, 56.213379%)" offset="0.46875"/><stop stop-opacity="1" stop-color="rgb(96.507263%, 79.794312%, 55.978394%)" offset="0.472656"/><stop stop-opacity="1" stop-color="rgb(96.46759%, 79.678345%, 55.743408%)" offset="0.476562"/><stop stop-opacity="1" stop-color="rgb(96.427917%, 79.560852%, 55.506897%)" offset="0.480469"/><stop stop-opacity="1" stop-color="rgb(96.388245%, 79.444885%, 55.271912%)" offset="0.484375"/><stop stop-opacity="1" stop-color="rgb(96.348572%, 79.328918%, 55.0354%)" offset="0.488281"/><stop stop-opacity="1" stop-color="rgb(96.308899%, 79.212952%, 54.800415%)" offset="0.492188"/><stop stop-opacity="1" stop-color="rgb(96.269226%, 79.095459%, 54.56543%)" offset="0.496094"/><stop stop-opacity="1" stop-color="rgb(96.229553%, 78.979492%, 54.330444%)" offset="0.5"/><stop stop-opacity="1" stop-color="rgb(96.18988%, 78.863525%, 54.093933%)" offset="0.503906"/><stop stop-opacity="1" stop-color="rgb(96.150208%, 78.747559%, 53.858948%)" offset="0.507812"/><stop stop-opacity="1" stop-color="rgb(96.110535%, 78.630066%, 53.622437%)" offset="0.511719"/><stop stop-opacity="1" stop-color="rgb(96.070862%, 78.514099%, 53.387451%)" offset="0.515625"/><stop stop-opacity="1" stop-color="rgb(96.031189%, 78.398132%, 53.152466%)" offset="0.519531"/><stop stop-opacity="1" stop-color="rgb(95.991516%, 78.282166%, 52.91748%)" offset="0.523438"/><stop stop-opacity="1" stop-color="rgb(95.951843%, 78.164673%, 52.680969%)" offset="0.527344"/><stop stop-opacity="1" stop-color="rgb(95.91217%, 78.048706%, 52.445984%)" offset="0.53125"/><stop stop-opacity="1" stop-color="rgb(95.870972%, 77.932739%, 52.209473%)" offset="0.535156"/><stop stop-opacity="1" stop-color="rgb(95.831299%, 77.816772%, 51.974487%)" offset="0.539062"/><stop stop-opacity="1" stop-color="rgb(95.791626%, 77.69928%, 51.739502%)" offset="0.542969"/><stop stop-opacity="1" stop-color="rgb(95.751953%, 77.583313%, 51.504517%)" offset="0.546875"/><stop stop-opacity="1" stop-color="rgb(95.71228%, 77.467346%, 51.268005%)" offset="0.550781"/><stop stop-opacity="1" stop-color="rgb(95.672607%, 77.351379%, 51.03302%)" offset="0.554688"/><stop stop-opacity="1" stop-color="rgb(95.632935%, 77.233887%, 50.796509%)" offset="0.558594"/><stop stop-opacity="1" stop-color="rgb(95.593262%, 77.11792%, 50.561523%)" offset="0.5625"/><stop stop-opacity="1" stop-color="rgb(95.553589%, 77.001953%, 50.325012%)" offset="0.566406"/><stop stop-opacity="1" stop-color="rgb(95.513916%, 76.885986%, 50.090027%)" offset="0.570312"/><stop stop-opacity="1" stop-color="rgb(95.474243%, 76.768494%, 49.855042%)" offset="0.574219"/><stop stop-opacity="1" stop-color="rgb(95.43457%, 76.652527%, 49.620056%)" offset="0.578125"/><stop stop-opacity="1" stop-color="rgb(95.394897%, 76.53656%, 49.383545%)" offset="0.582031"/><stop stop-opacity="1" stop-color="rgb(95.355225%, 76.420593%, 49.14856%)" offset="0.585938"/><stop stop-opacity="1" stop-color="rgb(95.315552%, 76.303101%, 48.912048%)" offset="0.589844"/><stop stop-opacity="1" stop-color="rgb(95.275879%, 76.187134%, 48.677063%)" offset="0.59375"/><stop stop-opacity="1" stop-color="rgb(95.236206%, 76.071167%, 48.442078%)" offset="0.597656"/><stop stop-opacity="1" stop-color="rgb(95.196533%, 75.9552%, 48.207092%)" offset="0.601562"/><stop stop-opacity="1" stop-color="rgb(95.15686%, 75.837708%, 47.970581%)" offset="0.605469"/><stop stop-opacity="1" stop-color="rgb(95.117188%, 75.721741%, 47.735596%)" offset="0.609375"/><stop stop-opacity="1" stop-color="rgb(95.077515%, 75.605774%, 47.499084%)" offset="0.613281"/><stop stop-opacity="1" stop-color="rgb(95.037842%, 75.489807%, 47.264099%)" offset="0.617188"/><stop stop-opacity="1" stop-color="rgb(94.998169%, 75.372314%, 47.029114%)" offset="0.621094"/><stop stop-opacity="1" stop-color="rgb(94.958496%, 75.256348%, 46.794128%)" offset="0.625"/><stop stop-opacity="1" stop-color="rgb(94.918823%, 75.140381%, 46.557617%)" offset="0.628906"/><stop stop-opacity="1" stop-color="rgb(94.87915%, 75.024414%, 46.322632%)" offset="0.632812"/><stop stop-opacity="1" stop-color="rgb(94.839478%, 74.906921%, 46.086121%)" offset="0.636719"/><stop stop-opacity="1" stop-color="rgb(94.799805%, 74.790955%, 45.851135%)" offset="0.640625"/><stop stop-opacity="1" stop-color="rgb(94.760132%, 74.674988%, 45.61615%)" offset="0.644531"/><stop stop-opacity="1" stop-color="rgb(94.720459%, 74.559021%, 45.381165%)" offset="0.648438"/><stop stop-opacity="1" stop-color="rgb(94.67926%, 74.441528%, 45.144653%)" offset="0.652344"/><stop stop-opacity="1" stop-color="rgb(94.639587%, 74.325562%, 44.909668%)" offset="0.65625"/><stop stop-opacity="1" stop-color="rgb(94.599915%, 74.209595%, 44.673157%)" offset="0.660156"/><stop stop-opacity="1" stop-color="rgb(94.560242%, 74.093628%, 44.438171%)" offset="0.664062"/><stop stop-opacity="1" stop-color="rgb(94.520569%, 73.977661%, 44.203186%)" offset="0.667969"/><stop stop-opacity="1" stop-color="rgb(94.480896%, 73.861694%, 43.968201%)" offset="0.671875"/><stop stop-opacity="1" stop-color="rgb(94.441223%, 73.744202%, 43.731689%)" offset="0.675781"/><stop stop-opacity="1" stop-color="rgb(94.40155%, 73.628235%, 43.496704%)" offset="0.679688"/><stop stop-opacity="1" stop-color="rgb(94.361877%, 73.512268%, 43.260193%)" offset="0.683594"/><stop stop-opacity="1" stop-color="rgb(94.322205%, 73.396301%, 43.025208%)" offset="0.6875"/><stop stop-opacity="1" stop-color="rgb(94.282532%, 73.278809%, 42.790222%)" offset="0.691406"/><stop stop-opacity="1" stop-color="rgb(94.242859%, 73.162842%, 42.555237%)" offset="0.695312"/><stop stop-opacity="1" stop-color="rgb(94.203186%, 73.046875%, 42.318726%)" offset="0.699219"/><stop stop-opacity="1" stop-color="rgb(94.163513%, 72.930908%, 42.08374%)" offset="0.703125"/><stop stop-opacity="1" stop-color="rgb(94.12384%, 72.813416%, 41.847229%)" offset="0.707031"/><stop stop-opacity="1" stop-color="rgb(94.084167%, 72.697449%, 41.612244%)" offset="0.710938"/><stop stop-opacity="1" stop-color="rgb(94.044495%, 72.581482%, 41.377258%)" offset="0.714844"/><stop stop-opacity="1" stop-color="rgb(94.004822%, 72.465515%, 41.142273%)" offset="0.71875"/><stop stop-opacity="1" stop-color="rgb(93.965149%, 72.348022%, 40.905762%)" offset="0.722656"/><stop stop-opacity="1" stop-color="rgb(93.925476%, 72.232056%, 40.670776%)" offset="0.726562"/><stop stop-opacity="1" stop-color="rgb(93.885803%, 72.116089%, 40.434265%)" offset="0.730469"/><stop stop-opacity="1" stop-color="rgb(93.84613%, 72.000122%, 40.19928%)" offset="0.734375"/><stop stop-opacity="1" stop-color="rgb(93.806458%, 71.882629%, 39.962769%)" offset="0.738281"/><stop stop-opacity="1" stop-color="rgb(93.766785%, 71.766663%, 39.727783%)" offset="0.742188"/><stop stop-opacity="1" stop-color="rgb(93.727112%, 71.650696%, 39.492798%)" offset="0.746094"/><stop stop-opacity="1" stop-color="rgb(93.687439%, 71.534729%, 39.257812%)" offset="0.75"/><stop stop-opacity="1" stop-color="rgb(93.647766%, 71.417236%, 39.021301%)" offset="0.753906"/><stop stop-opacity="1" stop-color="rgb(93.608093%, 71.30127%, 38.786316%)" offset="0.757812"/><stop stop-opacity="1" stop-color="rgb(93.56842%, 71.185303%, 38.549805%)" offset="0.761719"/><stop stop-opacity="1" stop-color="rgb(93.528748%, 71.069336%, 38.314819%)" offset="0.765625"/><stop stop-opacity="1" stop-color="rgb(93.489075%, 70.951843%, 38.079834%)" offset="0.769531"/><stop stop-opacity="1" stop-color="rgb(93.449402%, 70.835876%, 37.844849%)" offset="0.773438"/><stop stop-opacity="1" stop-color="rgb(93.408203%, 70.71991%, 37.608337%)" offset="0.777344"/><stop stop-opacity="1" stop-color="rgb(93.36853%, 70.603943%, 37.373352%)" offset="0.78125"/><stop stop-opacity="1" stop-color="rgb(93.328857%, 70.48645%, 37.136841%)" offset="0.785156"/><stop stop-opacity="1" stop-color="rgb(93.289185%, 70.370483%, 36.901855%)" offset="0.789062"/><stop stop-opacity="1" stop-color="rgb(93.249512%, 70.254517%, 36.66687%)" offset="0.792969"/><stop stop-opacity="1" stop-color="rgb(93.209839%, 70.13855%, 36.431885%)" offset="0.796875"/><stop stop-opacity="1" stop-color="rgb(93.170166%, 70.021057%, 36.195374%)" offset="0.800781"/><stop stop-opacity="1" stop-color="rgb(93.130493%, 69.90509%, 35.960388%)" offset="0.804688"/><stop stop-opacity="1" stop-color="rgb(93.09082%, 69.789124%, 35.723877%)" offset="0.808594"/><stop stop-opacity="1" stop-color="rgb(93.051147%, 69.673157%, 35.488892%)" offset="0.8125"/><stop stop-opacity="1" stop-color="rgb(93.011475%, 69.555664%, 35.253906%)" offset="0.816406"/><stop stop-opacity="1" stop-color="rgb(92.971802%, 69.439697%, 35.018921%)" offset="0.820312"/><stop stop-opacity="1" stop-color="rgb(92.932129%, 69.32373%, 34.78241%)" offset="0.824219"/><stop stop-opacity="1" stop-color="rgb(92.892456%, 69.207764%, 34.547424%)" offset="0.828125"/><stop stop-opacity="1" stop-color="rgb(92.852783%, 69.090271%, 34.310913%)" offset="0.832031"/><stop stop-opacity="1" stop-color="rgb(92.81311%, 68.974304%, 34.075928%)" offset="0.835938"/><stop stop-opacity="1" stop-color="rgb(92.773438%, 68.858337%, 33.840942%)" offset="0.839844"/><stop stop-opacity="1" stop-color="rgb(92.733765%, 68.742371%, 33.605957%)" offset="0.84375"/><stop stop-opacity="1" stop-color="rgb(92.694092%, 68.624878%, 33.369446%)" offset="0.847656"/><stop stop-opacity="1" stop-color="rgb(92.654419%, 68.508911%, 33.13446%)" offset="0.851562"/><stop stop-opacity="1" stop-color="rgb(92.614746%, 68.392944%, 32.897949%)" offset="0.855469"/><stop stop-opacity="1" stop-color="rgb(92.575073%, 68.276978%, 32.662964%)" offset="0.859375"/><stop stop-opacity="1" stop-color="rgb(92.5354%, 68.159485%, 32.427979%)" offset="0.863281"/><stop stop-opacity="1" stop-color="rgb(92.495728%, 68.043518%, 32.192993%)" offset="0.867188"/><stop stop-opacity="1" stop-color="rgb(92.456055%, 67.927551%, 31.956482%)" offset="0.871094"/><stop stop-opacity="1" stop-color="rgb(92.416382%, 67.811584%, 31.721497%)" offset="0.875"/><stop stop-opacity="1" stop-color="rgb(92.376709%, 67.694092%, 31.484985%)" offset="0.878906"/><stop stop-opacity="1" stop-color="rgb(92.337036%, 67.578125%, 31.25%)" offset="0.882813"/><stop stop-opacity="1" stop-color="rgb(92.297363%, 67.462158%, 31.013489%)" offset="0.886719"/><stop stop-opacity="1" stop-color="rgb(92.25769%, 67.346191%, 30.778503%)" offset="0.890625"/><stop stop-opacity="1" stop-color="rgb(92.218018%, 67.228699%, 30.543518%)" offset="0.894531"/><stop stop-opacity="1" stop-color="rgb(92.178345%, 67.112732%, 30.308533%)" offset="0.898438"/><stop stop-opacity="1" stop-color="rgb(92.167664%, 67.085266%, 30.253601%)" offset="0.90625"/><stop stop-opacity="1" stop-color="rgb(92.158508%, 67.059326%, 30.198669%)" offset="0.9375"/><stop stop-opacity="1" stop-color="rgb(92.158508%, 67.059326%, 30.198669%)" offset="1"/></linearGradient></defs><path fill="#000000" d="M 1497.128906 1304.90625 C 1436.535156 1209.148438 1342 1145.332031 1229.816406 1121.59375 C 1291.535156 1086.554688 1333.332031 1020.332031 1333.332031 944.445312 C 1333.332031 895.242188 1315.796875 850.054688 1286.648438 814.816406 L 1481.480469 814.816406 C 1486.390625 814.816406 1491.109375 812.871094 1494.574219 809.390625 C 1498.035156 805.90625 1500 801.203125 1500 796.296875 L 1500 666.667969 C 1500 663.167969 1499 659.722656 1497.128906 656.757812 C 1436.535156 561 1342 497.183594 1229.816406 473.445312 C 1291.535156 438.40625 1333.332031 372.183594 1333.332031 296.296875 C 1333.332031 183.980469 1241.945312 92.59375 1129.628906 92.59375 C 1017.316406 92.59375 925.925781 183.980469 925.925781 296.296875 C 925.925781 372.574219 993.332031 446.574219 1055.554688 481.480469 C 1033.371094 486.464844 965.777344 510.167969 944.445312 518.519531 C 913.257812 445.90625 861.667969 370.371094 777.777344 370.371094 C 693.851562 370.371094 621.648438 421.40625 590.480469 494.074219 C 569.316406 485.628906 547.535156 478.960938 525.296875 473.945312 C 587.464844 439.019531 629.628906 372.535156 629.628906 296.296875 C 629.628906 183.980469 538.242188 92.59375 425.925781 92.59375 C 313.609375 92.59375 222.222656 183.980469 222.222656 296.296875 C 222.222656 373 296.296875 425.925781 327.683594 474.628906 C 220.683594 499.742188 122.742188 564.480469 58.890625 656.074219 C 56.703125 659.183594 55.554688 662.871094 55.554688 666.667969 L 55.554688 796.296875 C 55.554688 806.519531 63.851562 814.816406 74.074219 814.816406 L 268.90625 814.816406 C 239.757812 850.054688 222.222656 895.242188 222.222656 944.445312 C 222.222656 1021.148438 296.296875 1092.59375 327.683594 1122.777344 C 220.683594 1147.890625 122.742188 1212.628906 58.890625 1304.222656 C 56.703125 1307.332031 55.554688 1311.019531 55.554688 1314.816406 L 55.554688 1444.445312 C 55.554688 1454.667969 63.851562 1462.960938 74.074219 1462.960938 L 1481.480469 1462.960938 C 1486.390625 1462.960938 1491.109375 1461.019531 1494.574219 1457.535156 C 1498.035156 1454.054688 1500 1449.351562 1500 1444.445312 L 1500 1314.816406 C 1500 1311.316406 1499 1307.871094 1497.128906 1304.90625 Z M 778.480469 1282.890625 C 722.222656 1240.742188 629.464844 1143.460938 526.109375 1121.59375 C 540.351562 1113.519531 553.464844 1103.742188 565.296875 1092.59375 L 990.242188 1092.59375 C 1002.628906 1104.257812 1016.371094 1114.480469 1031.371094 1122.777344 C 932.890625 1145.890625 842.09375 1202.574219 778.480469 1282.890625 Z M 778.480469 1282.890625 " fill-opacity="0.35" fill-rule="nonzero"/><path fill="#2d689e" d="M 732 740.742188 L 732 616.722656 C 659.40625 502 531.074219 425.925781 380.148438 425.925781 C 229.222656 425.925781 100.890625 503.074219 28.296875 607.183594 L 28.296875 740.742188 Z M 732 740.742188 " fill-opacity="1" fill-rule="nonzero"/><path fill="#cf9f88" d="M 555.554688 240.742188 C 555.554688 243.769531 555.480469 246.800781 555.332031 249.828125 C 555.183594 252.855469 554.960938 255.875 554.664062 258.890625 C 554.367188 261.90625 553.996094 264.914062 553.550781 267.914062 C 553.105469 270.910156 552.589844 273.894531 551.996094 276.867188 C 551.40625 279.839844 550.742188 282.796875 550.003906 285.738281 C 549.269531 288.675781 548.460938 291.597656 547.582031 294.496094 C 546.703125 297.398438 545.75 300.273438 544.730469 303.128906 C 543.710938 305.980469 542.617188 308.808594 541.460938 311.609375 C 540.300781 314.40625 539.070312 317.179688 537.777344 319.917969 C 536.480469 322.65625 535.117188 325.363281 533.6875 328.035156 C 532.261719 330.710938 530.765625 333.34375 529.207031 335.945312 C 527.652344 338.542969 526.03125 341.105469 524.347656 343.625 C 522.664062 346.144531 520.917969 348.621094 519.113281 351.054688 C 517.308594 353.488281 515.441406 355.878906 513.519531 358.222656 C 511.597656 360.5625 509.617188 362.859375 507.582031 365.101562 C 505.546875 367.347656 503.460938 369.542969 501.316406 371.6875 C 499.171875 373.828125 496.980469 375.917969 494.734375 377.953125 C 492.488281 379.988281 490.195312 381.96875 487.851562 383.890625 C 485.507812 385.8125 483.121094 387.675781 480.683594 389.484375 C 478.25 391.289062 475.773438 393.03125 473.253906 394.714844 C 470.734375 396.398438 468.175781 398.019531 465.574219 399.578125 C 462.976562 401.136719 460.339844 402.628906 457.667969 404.058594 C 454.992188 405.488281 452.285156 406.851562 449.546875 408.144531 C 446.808594 409.441406 444.039062 410.667969 441.238281 411.828125 C 438.4375 412.988281 435.609375 414.078125 432.757812 415.101562 C 429.902344 416.121094 427.027344 417.070312 424.125 417.953125 C 421.226562 418.832031 418.304688 419.640625 415.367188 420.375 C 412.425781 421.113281 409.46875 421.777344 406.5 422.367188 C 403.527344 422.957031 400.539062 423.476562 397.542969 423.921875 C 394.542969 424.367188 391.539062 424.738281 388.523438 425.035156 C 385.503906 425.332031 382.484375 425.554688 379.457031 425.703125 C 376.429688 425.851562 373.402344 425.925781 370.371094 425.925781 C 367.339844 425.925781 364.3125 425.851562 361.285156 425.703125 C 358.257812 425.554688 355.234375 425.332031 352.21875 425.035156 C 349.203125 424.738281 346.195312 424.367188 343.199219 423.921875 C 340.199219 423.476562 337.214844 422.957031 334.242188 422.367188 C 331.269531 421.777344 328.3125 421.113281 325.375 420.375 C 322.433594 419.640625 319.515625 418.832031 316.613281 417.953125 C 313.714844 417.070312 310.835938 416.121094 307.984375 415.101562 C 305.128906 414.078125 302.304688 412.988281 299.503906 411.828125 C 296.703125 410.667969 293.933594 409.441406 291.195312 408.144531 C 288.453125 406.851562 285.746094 405.488281 283.074219 404.058594 C 280.402344 402.628906 277.765625 401.136719 275.167969 399.578125 C 272.566406 398.019531 270.007812 396.398438 267.488281 394.714844 C 264.96875 393.03125 262.488281 391.289062 260.054688 389.484375 C 257.621094 387.675781 255.234375 385.8125 252.890625 383.890625 C 250.546875 381.96875 248.253906 379.988281 246.007812 377.953125 C 243.761719 375.917969 241.566406 373.828125 239.425781 371.6875 C 237.28125 369.542969 235.191406 367.347656 233.15625 365.101562 C 231.121094 362.859375 229.144531 360.5625 227.21875 358.222656 C 225.296875 355.878906 223.433594 353.488281 221.628906 351.054688 C 219.824219 348.621094 218.078125 346.144531 216.394531 343.625 C 214.710938 341.105469 213.089844 338.542969 211.53125 335.945312 C 209.972656 333.34375 208.480469 330.710938 207.050781 328.035156 C 205.621094 325.363281 204.261719 322.65625 202.964844 319.917969 C 201.667969 317.179688 200.441406 314.40625 199.28125 311.609375 C 198.121094 308.808594 197.03125 305.980469 196.011719 303.128906 C 194.988281 300.273438 194.039062 297.398438 193.160156 294.496094 C 192.28125 291.597656 191.472656 288.675781 190.734375 285.738281 C 190 282.796875 189.335938 279.839844 188.742188 276.867188 C 188.152344 273.894531 187.632812 270.910156 187.191406 267.914062 C 186.746094 264.914062 186.375 261.90625 186.078125 258.890625 C 185.78125 255.875 185.558594 252.855469 185.410156 249.828125 C 185.257812 246.800781 185.183594 243.769531 185.183594 240.742188 C 185.183594 237.710938 185.257812 234.679688 185.410156 231.652344 C 185.558594 228.628906 185.78125 225.605469 186.078125 222.589844 C 186.375 219.574219 186.746094 216.566406 187.191406 213.570312 C 187.632812 210.570312 188.152344 207.585938 188.742188 204.613281 C 189.335938 201.640625 190 198.683594 190.734375 195.746094 C 191.472656 192.804688 192.28125 189.882812 193.160156 186.984375 C 194.039062 184.085938 194.988281 181.207031 196.011719 178.355469 C 197.03125 175.5 198.121094 172.671875 199.28125 169.875 C 200.441406 167.074219 201.667969 164.304688 202.964844 161.5625 C 204.261719 158.824219 205.621094 156.117188 207.050781 153.445312 C 208.480469 150.773438 209.972656 148.136719 211.53125 145.535156 C 213.089844 142.9375 214.710938 140.378906 216.394531 137.855469 C 218.078125 135.335938 219.824219 132.859375 221.628906 130.425781 C 223.433594 127.992188 225.296875 125.601562 227.21875 123.261719 C 229.144531 120.917969 231.121094 118.625 233.15625 116.378906 C 235.191406 114.132812 237.28125 111.9375 239.425781 109.796875 C 241.566406 107.652344 243.761719 105.5625 246.007812 103.527344 C 248.253906 101.492188 250.546875 99.511719 252.890625 97.589844 C 255.234375 95.667969 257.621094 93.804688 260.054688 92 C 262.488281 90.191406 264.96875 88.449219 267.488281 86.765625 C 270.007812 85.082031 272.566406 83.460938 275.167969 81.902344 C 277.765625 80.34375 280.402344 78.851562 283.074219 77.421875 C 285.746094 75.992188 288.453125 74.632812 291.195312 73.335938 C 293.933594 72.039062 296.703125 70.8125 299.503906 69.652344 C 302.304688 68.492188 305.128906 67.402344 307.984375 66.378906 C 310.835938 65.359375 313.714844 64.410156 316.613281 63.53125 C 319.515625 62.648438 322.433594 61.839844 325.375 61.105469 C 328.3125 60.367188 331.269531 59.703125 334.242188 59.113281 C 337.214844 58.523438 340.199219 58.003906 343.199219 57.558594 C 346.195312 57.113281 349.203125 56.746094 352.21875 56.445312 C 355.234375 56.148438 358.257812 55.925781 361.285156 55.777344 C 364.3125 55.628906 367.339844 55.554688 370.371094 55.554688 C 373.402344 55.554688 376.429688 55.628906 379.457031 55.777344 C 382.484375 55.925781 385.503906 56.148438 388.523438 56.445312 C 391.539062 56.746094 394.542969 57.113281 397.542969 57.558594 C 400.539062 58.003906 403.527344 58.523438 406.5 59.113281 C 409.46875 59.703125 412.425781 60.367188 415.367188 61.105469 C 418.304688 61.839844 421.226562 62.648438 424.125 63.53125 C 427.027344 64.410156 429.902344 65.359375 432.757812 66.378906 C 435.609375 67.402344 438.4375 68.492188 441.238281 69.652344 C 444.039062 70.8125 446.808594 72.039062 449.546875 73.335938 C 452.285156 74.632812 454.992188 75.992188 457.667969 77.421875 C 460.339844 78.851562 462.976562 80.34375 465.574219 81.902344 C 468.175781 83.460938 470.734375 85.082031 473.253906 86.765625 C 475.773438 88.449219 478.25 90.191406 480.683594 92 C 483.121094 93.804688 485.507812 95.667969 487.851562 97.589844 C 490.195312 99.511719 492.488281 101.492188 494.734375 103.527344 C 496.980469 105.5625 499.171875 107.652344 501.316406 109.796875 C 503.460938 111.9375 505.546875 114.132812 507.582031 116.378906 C 509.617188 118.625 511.597656 120.917969 513.519531 123.261719 C 515.441406 125.601562 517.308594 127.992188 519.113281 130.425781 C 520.917969 132.859375 522.664062 135.335938 524.347656 137.855469 C 526.03125 140.378906 527.652344 142.9375 529.207031 145.535156 C 530.765625 148.136719 532.261719 150.773438 533.6875 153.445312 C 535.117188 156.117188 536.480469 158.824219 537.777344 161.5625 C 539.070312 164.304688 540.300781 167.074219 541.460938 169.875 C 542.617188 172.671875 543.710938 175.5 544.730469 178.355469 C 545.75 181.207031 546.703125 184.085938 547.582031 186.984375 C 548.460938 189.882812 549.269531 192.804688 550.003906 195.746094 C 550.742188 198.683594 551.40625 201.640625 551.996094 204.613281 C 552.589844 207.585938 553.105469 210.570312 553.550781 213.570312 C 553.996094 216.566406 554.367188 219.574219 554.664062 222.589844 C 554.960938 225.605469 555.183594 228.628906 555.332031 231.652344 C 555.480469 234.679688 555.554688 237.710938 555.554688 240.742188 Z M 555.554688 240.742188 " fill-opacity="1" fill-rule="nonzero"/><path fill="#2d689e" d="M 1435.703125 740.742188 L 1435.703125 616.722656 C 1363.109375 502 1234.777344 425.925781 1083.851562 425.925781 C 932.925781 425.925781 804.59375 503.074219 732 607.183594 L 732 740.742188 Z M 1435.703125 740.742188 " fill-opacity="1" fill-rule="nonzero"/><path fill="#cf9f88" d="M 1259.257812 240.742188 C 1259.257812 243.769531 1259.183594 246.800781 1259.035156 249.828125 C 1258.886719 252.855469 1258.664062 255.875 1258.367188 258.890625 C 1258.070312 261.90625 1257.699219 264.914062 1257.253906 267.914062 C 1256.808594 270.910156 1256.292969 273.894531 1255.699219 276.867188 C 1255.109375 279.839844 1254.445312 282.796875 1253.710938 285.738281 C 1252.972656 288.675781 1252.164062 291.597656 1251.285156 294.496094 C 1250.40625 297.398438 1249.453125 300.273438 1248.433594 303.128906 C 1247.414062 305.980469 1246.324219 308.808594 1245.164062 311.609375 C 1244.003906 314.40625 1242.773438 317.179688 1241.480469 319.917969 C 1240.183594 322.65625 1238.820312 325.363281 1237.394531 328.035156 C 1235.964844 330.710938 1234.46875 333.34375 1232.914062 335.945312 C 1231.355469 338.542969 1229.734375 341.105469 1228.050781 343.625 C 1226.367188 346.144531 1224.621094 348.621094 1222.816406 351.054688 C 1221.011719 353.488281 1219.148438 355.878906 1217.222656 358.222656 C 1215.300781 360.5625 1213.324219 362.859375 1211.289062 365.101562 C 1209.25 367.347656 1207.164062 369.542969 1205.019531 371.6875 C 1202.875 373.828125 1200.683594 375.917969 1198.4375 377.953125 C 1196.191406 379.988281 1193.898438 381.96875 1191.554688 383.890625 C 1189.210938 385.8125 1186.824219 387.675781 1184.386719 389.484375 C 1181.953125 391.289062 1179.476562 393.03125 1176.957031 394.714844 C 1174.4375 396.398438 1171.878906 398.019531 1169.277344 399.578125 C 1166.679688 401.136719 1164.042969 402.628906 1161.371094 404.058594 C 1158.695312 405.488281 1155.992188 406.851562 1153.25 408.144531 C 1150.511719 409.441406 1147.742188 410.667969 1144.941406 411.828125 C 1142.140625 412.988281 1139.3125 414.078125 1136.460938 415.101562 C 1133.605469 416.121094 1130.730469 417.070312 1127.832031 417.953125 C 1124.929688 418.832031 1122.011719 419.640625 1119.070312 420.375 C 1116.128906 421.113281 1113.175781 421.777344 1110.203125 422.367188 C 1107.230469 422.957031 1104.246094 423.476562 1101.246094 423.921875 C 1098.25 424.367188 1095.242188 424.738281 1092.226562 425.035156 C 1089.210938 425.332031 1086.1875 425.554688 1083.160156 425.703125 C 1080.132812 425.851562 1077.105469 425.925781 1074.074219 425.925781 C 1071.042969 425.925781 1068.015625 425.851562 1064.988281 425.703125 C 1061.960938 425.554688 1058.9375 425.332031 1055.921875 425.035156 C 1052.90625 424.738281 1049.898438 424.367188 1046.902344 423.921875 C 1043.902344 423.476562 1040.917969 422.957031 1037.945312 422.367188 C 1034.972656 421.777344 1032.015625 421.113281 1029.078125 420.375 C 1026.136719 419.640625 1023.21875 418.832031 1020.316406 417.953125 C 1017.417969 417.070312 1014.539062 416.121094 1011.6875 415.101562 C 1008.832031 414.078125 1006.007812 412.988281 1003.207031 411.828125 C 1000.40625 410.667969 997.636719 409.441406 994.898438 408.144531 C 992.15625 406.851562 989.449219 405.488281 986.777344 404.058594 C 984.105469 402.628906 981.46875 401.136719 978.871094 399.578125 C 976.269531 398.019531 973.710938 396.398438 971.191406 394.714844 C 968.671875 393.03125 966.195312 391.289062 963.757812 389.484375 C 961.324219 387.675781 958.9375 385.8125 956.59375 383.890625 C 954.25 381.96875 951.957031 379.988281 949.710938 377.953125 C 947.464844 375.917969 945.269531 373.828125 943.128906 371.6875 C 940.984375 369.542969 938.894531 367.347656 936.859375 365.101562 C 934.824219 362.859375 932.847656 360.5625 930.925781 358.222656 C 929 355.878906 927.136719 353.488281 925.332031 351.054688 C 923.527344 348.621094 921.78125 346.144531 920.097656 343.625 C 918.414062 341.105469 916.792969 338.542969 915.234375 335.945312 C 913.675781 333.34375 912.183594 330.710938 910.753906 328.035156 C 909.328125 325.363281 907.964844 322.65625 906.667969 319.917969 C 905.371094 317.179688 904.144531 314.40625 902.984375 311.609375 C 901.824219 308.808594 900.734375 305.980469 899.714844 303.128906 C 898.691406 300.273438 897.742188 297.398438 896.863281 294.496094 C 895.984375 291.597656 895.175781 288.675781 894.4375 285.738281 C 893.703125 282.796875 893.039062 279.839844 892.445312 276.867188 C 891.855469 273.894531 891.335938 270.910156 890.894531 267.914062 C 890.449219 264.914062 890.078125 261.90625 889.78125 258.890625 C 889.484375 255.875 889.261719 252.855469 889.113281 249.828125 C 888.964844 246.800781 888.890625 243.769531 888.890625 240.742188 C 888.890625 237.710938 888.964844 234.679688 889.113281 231.652344 C 889.261719 228.628906 889.484375 225.605469 889.78125 222.589844 C 890.078125 219.574219 890.449219 216.566406 890.894531 213.570312 C 891.335938 210.570312 891.855469 207.585938 892.445312 204.613281 C 893.039062 201.640625 893.703125 198.683594 894.4375 195.746094 C 895.175781 192.804688 895.984375 189.882812 896.863281 186.984375 C 897.742188 184.085938 898.691406 181.207031 899.714844 178.355469 C 900.734375 175.5 901.824219 172.671875 902.984375 169.875 C 904.144531 167.074219 905.371094 164.304688 906.667969 161.5625 C 907.964844 158.824219 909.328125 156.117188 910.753906 153.445312 C 912.183594 150.773438 913.675781 148.136719 915.234375 145.535156 C 916.792969 142.9375 918.414062 140.378906 920.097656 137.855469 C 921.78125 135.335938 923.527344 132.859375 925.332031 130.425781 C 927.136719 127.992188 929 125.601562 930.921875 123.261719 C 932.847656 120.917969 934.824219 118.625 936.859375 116.378906 C 938.894531 114.132812 940.984375 111.9375 943.128906 109.796875 C 945.269531 107.652344 947.464844 105.5625 949.710938 103.527344 C 951.957031 101.492188 954.25 99.511719 956.59375 97.589844 C 958.9375 95.667969 961.324219 93.804688 963.757812 92 C 966.195312 90.191406 968.671875 88.449219 971.191406 86.765625 C 973.710938 85.082031 976.269531 83.460938 978.871094 81.902344 C 981.46875 80.34375 984.105469 78.851562 986.777344 77.421875 C 989.449219 75.992188 992.15625 74.632812 994.898438 73.335938 C 997.636719 72.039062 1000.40625 70.8125 1003.207031 69.652344 C 1006.007812 68.492188 1008.832031 67.402344 1011.6875 66.378906 C 1014.539062 65.359375 1017.417969 64.410156 1020.316406 63.53125 C 1023.21875 62.648438 1026.136719 61.839844 1029.078125 61.105469 C 1032.015625 60.367188 1034.972656 59.703125 1037.945312 59.113281 C 1040.917969 58.523438 1043.902344 58.003906 1046.902344 57.558594 C 1049.898438 57.113281 1052.90625 56.746094 1055.921875 56.445312 C 1058.9375 56.148438 1061.960938 55.925781 1064.988281 55.777344 C 1068.015625 55.628906 1071.042969 55.554688 1074.074219 55.554688 C 1077.105469 55.554688 1080.132812 55.628906 1083.160156 55.777344 C 1086.1875 55.925781 1089.210938 56.148438 1092.226562 56.445312 C 1095.242188 56.746094 1098.25 57.113281 1101.246094 57.558594 C 1104.246094 58.003906 1107.230469 58.523438 1110.203125 59.113281 C 1113.175781 59.703125 1116.128906 60.367188 1119.070312 61.105469 C 1122.011719 61.839844 1124.929688 62.648438 1127.832031 63.53125 C 1130.730469 64.410156 1133.605469 65.359375 1136.460938 66.378906 C 1139.3125 67.402344 1142.140625 68.492188 1144.941406 69.652344 C 1147.742188 70.8125 1150.511719 72.039062 1153.25 73.335938 C 1155.988281 74.632812 1158.695312 75.992188 1161.371094 77.421875 C 1164.042969 78.851562 1166.679688 80.34375 1169.277344 81.902344 C 1171.878906 83.460938 1174.4375 85.082031 1176.957031 86.765625 C 1179.476562 88.449219 1181.953125 90.191406 1184.386719 92 C 1186.824219 93.804688 1189.210938 95.667969 1191.554688 97.589844 C 1193.898438 99.511719 1196.191406 101.492188 1198.4375 103.527344 C 1200.683594 105.5625 1202.875 107.652344 1205.019531 109.796875 C 1207.164062 111.9375 1209.25 114.132812 1211.285156 116.378906 C 1213.324219 118.625 1215.300781 120.917969 1217.222656 123.261719 C 1219.148438 125.601562 1221.011719 127.992188 1222.816406 130.425781 C 1224.621094 132.859375 1226.367188 135.335938 1228.050781 137.855469 C 1229.734375 140.378906 1231.355469 142.9375 1232.914062 145.535156 C 1234.46875 148.136719 1235.964844 150.773438 1237.394531 153.445312 C 1238.820312 156.117188 1240.183594 158.824219 1241.480469 161.5625 C 1242.773438 164.304688 1244.003906 167.074219 1245.164062 169.875 C 1246.324219 172.671875 1247.414062 175.5 1248.433594 178.355469 C 1249.453125 181.207031 1250.40625 184.085938 1251.285156 186.984375 C 1252.164062 189.882812 1252.972656 192.804688 1253.710938 195.746094 C 1254.445312 198.683594 1255.109375 201.640625 1255.699219 204.613281 C 1256.292969 207.585938 1256.808594 210.570312 1257.253906 213.570312 C 1257.699219 216.566406 1258.070312 219.574219 1258.367188 222.589844 C 1258.664062 225.605469 1258.886719 228.628906 1259.035156 231.652344 C 1259.183594 234.679688 1259.257812 237.710938 1259.257812 240.742188 Z M 1259.257812 240.742188 " fill-opacity="1" fill-rule="nonzero"/><path fill="#549bd6" d="M 1083.851562 1018.519531 L 1083.851562 894.5 C 1011.257812 779.777344 882.925781 703.703125 732 703.703125 C 581.074219 703.703125 452.742188 780.851562 380.148438 884.960938 L 380.148438 1018.519531 Z M 1083.851562 1018.519531 " fill-opacity="1" fill-rule="nonzero"/><path fill="#cf9f88" d="M 907.40625 518.519531 C 907.40625 521.550781 907.332031 524.578125 907.183594 527.605469 C 907.035156 530.632812 906.8125 533.652344 906.515625 536.667969 C 906.21875 539.6875 905.847656 542.691406 905.402344 545.691406 C 904.957031 548.6875 904.441406 551.671875 903.847656 554.644531 C 903.257812 557.617188 902.59375 560.574219 901.855469 563.515625 C 901.121094 566.453125 900.3125 569.375 899.433594 572.273438 C 898.554688 575.175781 897.601562 578.050781 896.582031 580.90625 C 895.5625 583.757812 894.46875 586.585938 893.3125 589.386719 C 892.152344 592.1875 890.921875 594.957031 889.628906 597.695312 C 888.332031 600.433594 886.96875 603.140625 885.539062 605.8125 C 884.113281 608.488281 882.617188 611.125 881.0625 613.722656 C 879.503906 616.320312 877.882812 618.882812 876.199219 621.402344 C 874.515625 623.921875 872.769531 626.398438 870.964844 628.832031 C 869.160156 631.265625 867.292969 633.65625 865.371094 636 C 863.449219 638.339844 861.46875 640.636719 859.433594 642.882812 C 857.398438 645.125 855.3125 647.320312 853.167969 649.464844 C 851.023438 651.605469 848.832031 653.695312 846.585938 655.730469 C 844.339844 657.765625 842.046875 659.746094 839.703125 661.667969 C 837.359375 663.589844 834.972656 665.453125 832.535156 667.261719 C 830.101562 669.066406 827.625 670.808594 825.105469 672.496094 C 822.585938 674.179688 820.027344 675.796875 817.425781 677.355469 C 814.828125 678.914062 812.191406 680.410156 809.519531 681.835938 C 806.84375 683.265625 804.136719 684.628906 801.398438 685.921875 C 798.660156 687.21875 795.890625 688.449219 793.089844 689.605469 C 790.289062 690.765625 787.460938 691.855469 784.609375 692.878906 C 781.753906 693.898438 778.878906 694.851562 775.976562 695.730469 C 773.078125 696.609375 770.160156 697.417969 767.21875 698.152344 C 764.277344 698.890625 761.324219 699.554688 758.351562 700.144531 C 755.378906 700.738281 752.390625 701.253906 749.394531 701.699219 C 746.398438 702.144531 743.390625 702.515625 740.375 702.8125 C 737.359375 703.109375 734.335938 703.332031 731.308594 703.480469 C 728.28125 703.628906 725.253906 703.703125 722.222656 703.703125 C 719.191406 703.703125 716.164062 703.628906 713.136719 703.480469 C 710.109375 703.332031 707.085938 703.109375 704.070312 702.8125 C 701.054688 702.515625 698.046875 702.144531 695.050781 701.699219 C 692.050781 701.253906 689.066406 700.738281 686.09375 700.144531 C 683.121094 699.554688 680.164062 698.890625 677.226562 698.152344 C 674.285156 697.417969 671.367188 696.609375 668.464844 695.730469 C 665.566406 694.851562 662.6875 693.898438 659.835938 692.878906 C 656.980469 691.855469 654.15625 690.765625 651.355469 689.605469 C 648.554688 688.449219 645.785156 687.21875 643.046875 685.921875 C 640.304688 684.628906 637.597656 683.265625 634.925781 681.835938 C 632.253906 680.410156 629.617188 678.914062 627.019531 677.355469 C 624.417969 675.796875 621.859375 674.179688 619.339844 672.496094 C 616.820312 670.808594 614.339844 669.066406 611.90625 667.261719 C 609.472656 665.453125 607.085938 663.589844 604.742188 661.667969 C 602.398438 659.746094 600.105469 657.765625 597.859375 655.730469 C 595.613281 653.695312 593.417969 651.605469 591.277344 649.464844 C 589.132812 647.320312 587.042969 645.125 585.007812 642.882812 C 582.972656 640.636719 580.996094 638.339844 579.070312 636 C 577.148438 633.65625 575.285156 631.265625 573.480469 628.832031 C 571.675781 626.398438 569.929688 623.921875 568.246094 621.402344 C 566.5625 618.882812 564.941406 616.320312 563.382812 613.722656 C 561.824219 611.125 560.332031 608.488281 558.902344 605.8125 C 557.476562 603.140625 556.113281 600.433594 554.816406 597.695312 C 553.519531 594.957031 552.292969 592.1875 551.132812 589.386719 C 549.972656 586.585938 548.882812 583.757812 547.863281 580.90625 C 546.839844 578.050781 545.890625 575.175781 545.011719 572.273438 C 544.132812 569.375 543.324219 566.453125 542.585938 563.515625 C 541.851562 560.574219 541.1875 557.617188 540.59375 554.644531 C 540.003906 551.671875 539.484375 548.6875 539.042969 545.691406 C 538.597656 542.691406 538.226562 539.6875 537.929688 536.667969 C 537.632812 533.652344 537.410156 530.632812 537.261719 527.605469 C 537.113281 524.578125 537.035156 521.550781 537.035156 518.519531 C 537.035156 515.488281 537.113281 512.457031 537.261719 509.433594 C 537.410156 506.40625 537.632812 503.382812 537.929688 500.367188 C 538.226562 497.351562 538.597656 494.34375 539.042969 491.347656 C 539.484375 488.347656 540.003906 485.363281 540.59375 482.390625 C 541.1875 479.417969 541.851562 476.460938 542.585938 473.523438 C 543.324219 470.582031 544.132812 467.664062 545.011719 464.761719 C 545.890625 461.863281 546.839844 458.984375 547.863281 456.132812 C 548.882812 453.277344 549.972656 450.449219 551.132812 447.652344 C 552.292969 444.851562 553.519531 442.082031 554.816406 439.339844 C 556.113281 436.601562 557.476562 433.894531 558.902344 431.222656 C 560.332031 428.550781 561.824219 425.914062 563.382812 423.3125 C 564.941406 420.714844 566.5625 418.15625 568.246094 415.636719 C 569.929688 413.113281 571.675781 410.636719 573.480469 408.203125 C 575.285156 405.769531 577.148438 403.382812 579.070312 401.039062 C 580.996094 398.695312 582.972656 396.402344 585.007812 394.15625 C 587.042969 391.910156 589.132812 389.714844 591.277344 387.574219 C 593.417969 385.429688 595.613281 383.339844 597.859375 381.304688 C 600.105469 379.269531 602.398438 377.289062 604.742188 375.367188 C 607.085938 373.445312 609.472656 371.582031 611.90625 369.777344 C 614.339844 367.972656 616.820312 366.226562 619.339844 364.542969 C 621.859375 362.859375 624.417969 361.238281 627.019531 359.679688 C 629.617188 358.121094 632.253906 356.628906 634.925781 355.199219 C 637.597656 353.769531 640.304688 352.410156 643.046875 351.113281 C 645.785156 349.816406 648.554688 348.589844 651.355469 347.429688 C 654.15625 346.269531 656.980469 345.179688 659.835938 344.160156 C 662.6875 343.136719 665.566406 342.1875 668.464844 341.308594 C 671.367188 340.425781 674.285156 339.621094 677.226562 338.882812 C 680.164062 338.148438 683.121094 337.484375 686.09375 336.890625 C 689.066406 336.300781 692.050781 335.78125 695.050781 335.335938 C 698.046875 334.894531 701.054688 334.523438 704.070312 334.226562 C 707.085938 333.929688 710.109375 333.703125 713.136719 333.554688 C 716.164062 333.40625 719.191406 333.332031 722.222656 333.332031 C 725.253906 333.332031 728.28125 333.40625 731.308594 333.554688 C 734.335938 333.703125 737.359375 333.929688 740.375 334.226562 C 743.390625 334.523438 746.398438 334.894531 749.394531 335.335938 C 752.390625 335.78125 755.378906 336.300781 758.351562 336.890625 C 761.324219 337.484375 764.277344 338.148438 767.21875 338.882812 C 770.160156 339.621094 773.078125 340.425781 775.976562 341.308594 C 778.878906 342.1875 781.753906 343.136719 784.609375 344.160156 C 787.460938 345.179688 790.289062 346.269531 793.089844 347.429688 C 795.890625 348.589844 798.660156 349.816406 801.398438 351.113281 C 804.136719 352.410156 806.84375 353.769531 809.519531 355.199219 C 812.191406 356.628906 814.828125 358.121094 817.425781 359.679688 C 820.027344 361.238281 822.585938 362.859375 825.105469 364.542969 C 827.625 366.226562 830.101562 367.972656 832.535156 369.777344 C 834.972656 371.582031 837.359375 373.445312 839.703125 375.367188 C 842.046875 377.289062 844.339844 379.269531 846.585938 381.304688 C 848.832031 383.339844 851.023438 385.429688 853.167969 387.574219 C 855.3125 389.714844 857.398438 391.910156 859.433594 394.15625 C 861.46875 396.402344 863.449219 398.695312 865.371094 401.039062 C 867.292969 403.382812 869.160156 405.769531 870.964844 408.203125 C 872.769531 410.636719 874.515625 413.113281 876.199219 415.636719 C 877.882812 418.15625 879.503906 420.714844 881.0625 423.3125 C 882.617188 425.914062 884.113281 428.550781 885.539062 431.222656 C 886.96875 433.894531 888.332031 436.601562 889.628906 439.339844 C 890.921875 442.082031 892.152344 444.851562 893.3125 447.652344 C 894.46875 450.449219 895.5625 453.277344 896.582031 456.132812 C 897.601562 458.984375 898.554688 461.863281 899.433594 464.761719 C 900.3125 467.664062 901.121094 470.582031 901.859375 473.523438 C 902.59375 476.460938 903.257812 479.417969 903.847656 482.390625 C 904.441406 485.363281 904.957031 488.347656 905.402344 491.347656 C 905.847656 494.34375 906.21875 497.351562 906.515625 500.367188 C 906.8125 503.382812 907.035156 506.40625 907.183594 509.433594 C 907.332031 512.457031 907.40625 515.488281 907.40625 518.519531 Z M 907.40625 518.519531 " fill-opacity="1" fill-rule="nonzero"/><path fill="#55bfd8" d="M 1435.703125 1388.890625 L 1435.703125 1264.871094 C 1363.109375 1150.148438 1234.777344 1074.074219 1083.851562 1074.074219 C 932.925781 1074.074219 804.59375 1151.222656 732 1255.332031 L 732 1388.890625 Z M 1435.703125 1388.890625 " fill-opacity="1" fill-rule="nonzero"/><path fill="#cf9f88" d="M 1259.257812 888.890625 C 1259.257812 891.917969 1259.183594 894.949219 1259.035156 897.976562 C 1258.886719 901.003906 1258.664062 904.023438 1258.367188 907.039062 C 1258.070312 910.054688 1257.699219 913.0625 1257.253906 916.0625 C 1256.808594 919.058594 1256.292969 922.042969 1255.699219 925.015625 C 1255.109375 927.988281 1254.445312 930.945312 1253.710938 933.886719 C 1252.972656 936.824219 1252.164062 939.746094 1251.285156 942.644531 C 1250.40625 945.546875 1249.453125 948.421875 1248.433594 951.277344 C 1247.414062 954.128906 1246.324219 956.957031 1245.164062 959.757812 C 1244.003906 962.554688 1242.773438 965.324219 1241.480469 968.066406 C 1240.183594 970.804688 1238.820312 973.511719 1237.394531 976.183594 C 1235.964844 978.855469 1234.46875 981.492188 1232.914062 984.09375 C 1231.355469 986.691406 1229.734375 989.253906 1228.050781 991.773438 C 1226.367188 994.292969 1224.621094 996.769531 1222.816406 999.203125 C 1221.011719 1001.636719 1219.148438 1004.027344 1217.222656 1006.367188 C 1215.300781 1008.710938 1213.324219 1011.003906 1211.289062 1013.25 C 1209.25 1015.496094 1207.164062 1017.691406 1205.019531 1019.835938 C 1202.875 1021.976562 1200.683594 1024.066406 1198.4375 1026.101562 C 1196.191406 1028.136719 1193.898438 1030.117188 1191.554688 1032.039062 C 1189.210938 1033.960938 1186.824219 1035.824219 1184.386719 1037.628906 C 1181.953125 1039.4375 1179.476562 1041.179688 1176.957031 1042.863281 C 1174.4375 1044.546875 1171.878906 1046.167969 1169.277344 1047.726562 C 1166.679688 1049.285156 1164.042969 1050.777344 1161.371094 1052.207031 C 1158.695312 1053.636719 1155.992188 1055 1153.25 1056.292969 C 1150.511719 1057.589844 1147.742188 1058.816406 1144.941406 1059.976562 C 1142.140625 1061.136719 1139.3125 1062.226562 1136.460938 1063.25 C 1133.605469 1064.269531 1130.730469 1065.21875 1127.832031 1066.101562 C 1124.929688 1066.980469 1122.011719 1067.789062 1119.070312 1068.523438 C 1116.128906 1069.261719 1113.175781 1069.925781 1110.203125 1070.515625 C 1107.230469 1071.105469 1104.246094 1071.625 1101.246094 1072.070312 C 1098.25 1072.515625 1095.242188 1072.886719 1092.226562 1073.183594 C 1089.210938 1073.480469 1086.1875 1073.703125 1083.160156 1073.851562 C 1080.132812 1074 1077.105469 1074.074219 1074.074219 1074.074219 C 1071.042969 1074.074219 1068.015625 1074 1064.988281 1073.851562 C 1061.960938 1073.703125 1058.9375 1073.480469 1055.921875 1073.183594 C 1052.90625 1072.886719 1049.898438 1072.515625 1046.902344 1072.070312 C 1043.902344 1071.625 1040.917969 1071.105469 1037.945312 1070.515625 C 1034.972656 1069.925781 1032.015625 1069.261719 1029.078125 1068.523438 C 1026.136719 1067.789062 1023.21875 1066.980469 1020.316406 1066.101562 C 1017.417969 1065.21875 1014.539062 1064.269531 1011.6875 1063.25 C 1008.832031 1062.226562 1006.007812 1061.136719 1003.207031 1059.976562 C 1000.40625 1058.816406 997.636719 1057.589844 994.898438 1056.292969 C 992.15625 1055 989.449219 1053.636719 986.777344 1052.207031 C 984.105469 1050.777344 981.46875 1049.285156 978.871094 1047.726562 C 976.269531 1046.167969 973.710938 1044.546875 971.191406 1042.863281 C 968.671875 1041.179688 966.195312 1039.4375 963.757812 1037.628906 C 961.324219 1035.824219 958.9375 1033.960938 956.59375 1032.039062 C 954.25 1030.117188 951.957031 1028.136719 949.710938 1026.101562 C 947.464844 1024.066406 945.269531 1021.976562 943.128906 1019.835938 C 940.984375 1017.691406 938.894531 1015.496094 936.859375 1013.25 C 934.824219 1011.003906 932.847656 1008.710938 930.925781 1006.367188 C 929 1004.027344 927.136719 1001.636719 925.332031 999.203125 C 923.527344 996.769531 921.78125 994.292969 920.097656 991.773438 C 918.414062 989.253906 916.792969 986.691406 915.234375 984.09375 C 913.675781 981.492188 912.183594 978.855469 910.753906 976.183594 C 909.328125 973.511719 907.964844 970.804688 906.667969 968.066406 C 905.371094 965.324219 904.144531 962.554688 902.984375 959.757812 C 901.824219 956.957031 900.734375 954.128906 899.714844 951.277344 C 898.691406 948.421875 897.742188 945.546875 896.863281 942.644531 C 895.984375 939.746094 895.175781 936.824219 894.4375 933.886719 C 893.703125 930.945312 893.039062 927.988281 892.445312 925.015625 C 891.855469 922.042969 891.335938 919.058594 890.894531 916.0625 C 890.449219 913.0625 890.078125 910.054688 889.78125 907.039062 C 889.484375 904.023438 889.261719 901.003906 889.113281 897.976562 C 888.964844 894.949219 888.890625 891.917969 888.890625 888.890625 C 888.890625 885.859375 888.964844 882.828125 889.113281 879.800781 C 889.261719 876.773438 889.484375 873.753906 889.78125 870.738281 C 890.078125 867.722656 890.449219 864.714844 890.894531 861.714844 C 891.335938 858.71875 891.855469 855.734375 892.445312 852.761719 C 893.039062 849.789062 893.703125 846.832031 894.4375 843.890625 C 895.175781 840.953125 895.984375 838.03125 896.863281 835.132812 C 897.742188 832.230469 898.691406 829.355469 899.714844 826.5 C 900.734375 823.648438 901.824219 820.820312 902.984375 818.019531 C 904.144531 815.222656 905.371094 812.453125 906.667969 809.710938 C 907.964844 806.972656 909.328125 804.265625 910.753906 801.59375 C 912.183594 798.921875 913.675781 796.285156 915.234375 793.683594 C 916.792969 791.085938 918.414062 788.523438 920.097656 786.003906 C 921.78125 783.484375 923.527344 781.007812 925.332031 778.574219 C 927.136719 776.140625 929 773.75 930.921875 771.410156 C 932.847656 769.066406 934.824219 766.773438 936.859375 764.527344 C 938.894531 762.28125 940.984375 760.085938 943.128906 757.941406 C 945.269531 755.800781 947.464844 753.710938 949.710938 751.675781 C 951.957031 749.640625 954.25 747.660156 956.59375 745.738281 C 958.9375 743.816406 961.324219 741.953125 963.757812 740.148438 C 966.195312 738.339844 968.671875 736.597656 971.191406 734.914062 C 973.710938 733.230469 976.269531 731.609375 978.871094 730.050781 C 981.46875 728.492188 984.105469 727 986.777344 725.570312 C 989.449219 724.140625 992.15625 722.777344 994.898438 721.484375 C 997.636719 720.1875 1000.40625 718.960938 1003.207031 717.800781 C 1006.007812 716.640625 1008.832031 715.550781 1011.6875 714.527344 C 1014.539062 713.507812 1017.417969 712.558594 1020.316406 711.675781 C 1023.21875 710.796875 1026.136719 709.988281 1029.078125 709.253906 C 1032.015625 708.515625 1034.972656 707.851562 1037.945312 707.261719 C 1040.917969 706.671875 1043.902344 706.152344 1046.902344 705.707031 C 1049.898438 705.261719 1052.90625 704.890625 1055.921875 704.59375 C 1058.9375 704.296875 1061.960938 704.074219 1064.988281 703.925781 C 1068.015625 703.777344 1071.042969 703.703125 1074.074219 703.703125 C 1077.105469 703.703125 1080.132812 703.777344 1083.160156 703.925781 C 1086.1875 704.074219 1089.210938 704.296875 1092.226562 704.59375 C 1095.242188 704.890625 1098.25 705.261719 1101.246094 705.707031 C 1104.246094 706.152344 1107.230469 706.671875 1110.203125 707.261719 C 1113.175781 707.851562 1116.128906 708.515625 1119.070312 709.253906 C 1122.011719 709.988281 1124.929688 710.796875 1127.832031 711.675781 C 1130.730469 712.558594 1133.605469 713.507812 1136.460938 714.527344 C 1139.3125 715.550781 1142.140625 716.640625 1144.941406 717.800781 C 1147.742188 718.960938 1150.511719 720.1875 1153.25 721.484375 C 1155.988281 722.777344 1158.695312 724.140625 1161.371094 725.570312 C 1164.042969 727 1166.679688 728.492188 1169.277344 730.050781 C 1171.878906 731.609375 1174.4375 733.230469 1176.957031 734.914062 C 1179.476562 736.597656 1181.953125 738.339844 1184.386719 740.148438 C 1186.824219 741.953125 1189.210938 743.816406 1191.554688 745.738281 C 1193.898438 747.660156 1196.191406 749.640625 1198.4375 751.675781 C 1200.683594 753.710938 1202.875 755.800781 1205.019531 757.941406 C 1207.164062 760.085938 1209.25 762.28125 1211.285156 764.527344 C 1213.324219 766.773438 1215.300781 769.066406 1217.222656 771.410156 C 1219.148438 773.75 1221.011719 776.140625 1222.816406 778.574219 C 1224.621094 781.007812 1226.367188 783.484375 1228.050781 786.003906 C 1229.734375 788.523438 1231.355469 791.085938 1232.914062 793.683594 C 1234.46875 796.285156 1235.964844 798.921875 1237.394531 801.59375 C 1238.820312 804.265625 1240.183594 806.972656 1241.480469 809.710938 C 1242.773438 812.453125 1244.003906 815.222656 1245.164062 818.019531 C 1246.324219 820.820312 1247.414062 823.648438 1248.433594 826.5 C 1249.453125 829.355469 1250.40625 832.230469 1251.285156 835.132812 C 1252.164062 838.03125 1252.972656 840.953125 1253.710938 843.890625 C 1254.445312 846.832031 1255.109375 849.789062 1255.699219 852.761719 C 1256.292969 855.734375 1256.808594 858.71875 1257.253906 861.714844 C 1257.699219 864.714844 1258.070312 867.722656 1258.367188 870.738281 C 1258.664062 873.753906 1258.886719 876.773438 1259.035156 879.800781 C 1259.183594 882.828125 1259.257812 885.859375 1259.257812 888.890625 Z M 1259.257812 888.890625 " fill-opacity="1" fill-rule="nonzero"/><path fill="#55bfd8" d="M 732 1388.890625 L 732 1264.871094 C 659.40625 1150.148438 531.074219 1074.074219 380.148438 1074.074219 C 229.222656 1074.074219 100.890625 1151.222656 28.296875 1255.332031 L 28.296875 1388.890625 Z M 732 1388.890625 " fill-opacity="1" fill-rule="nonzero"/><path fill="#cf9f88" d="M 555.554688 888.890625 C 555.554688 891.917969 555.480469 894.949219 555.332031 897.976562 C 555.183594 901.003906 554.960938 904.023438 554.664062 907.039062 C 554.367188 910.054688 553.996094 913.0625 553.550781 916.0625 C 553.105469 919.058594 552.589844 922.042969 551.996094 925.015625 C 551.40625 927.988281 550.742188 930.945312 550.003906 933.886719 C 549.269531 936.824219 548.460938 939.746094 547.582031 942.644531 C 546.703125 945.546875 545.75 948.421875 544.730469 951.277344 C 543.710938 954.128906 542.617188 956.957031 541.460938 959.757812 C 540.300781 962.554688 539.070312 965.324219 537.777344 968.066406 C 536.480469 970.804688 535.117188 973.511719 533.6875 976.183594 C 532.261719 978.855469 530.765625 981.492188 529.207031 984.09375 C 527.652344 986.691406 526.03125 989.253906 524.347656 991.773438 C 522.664062 994.292969 520.917969 996.769531 519.113281 999.203125 C 517.308594 1001.636719 515.441406 1004.027344 513.519531 1006.367188 C 511.597656 1008.710938 509.617188 1011.003906 507.582031 1013.25 C 505.546875 1015.496094 503.460938 1017.691406 501.316406 1019.835938 C 499.171875 1021.976562 496.980469 1024.066406 494.734375 1026.101562 C 492.488281 1028.136719 490.195312 1030.117188 487.851562 1032.039062 C 485.507812 1033.960938 483.121094 1035.824219 480.683594 1037.628906 C 478.25 1039.4375 475.773438 1041.179688 473.253906 1042.863281 C 470.734375 1044.546875 468.175781 1046.167969 465.574219 1047.726562 C 462.976562 1049.285156 460.339844 1050.777344 457.667969 1052.207031 C 454.992188 1053.636719 452.285156 1055 449.546875 1056.292969 C 446.808594 1057.589844 444.039062 1058.816406 441.238281 1059.976562 C 438.4375 1061.136719 435.609375 1062.226562 432.757812 1063.25 C 429.902344 1064.269531 427.027344 1065.21875 424.125 1066.101562 C 421.226562 1066.980469 418.304688 1067.789062 415.367188 1068.523438 C 412.425781 1069.261719 409.46875 1069.925781 406.5 1070.515625 C 403.527344 1071.105469 400.539062 1071.625 397.542969 1072.070312 C 394.542969 1072.515625 391.539062 1072.886719 388.523438 1073.183594 C 385.503906 1073.480469 382.484375 1073.703125 379.457031 1073.851562 C 376.429688 1074 373.402344 1074.074219 370.371094 1074.074219 C 367.339844 1074.074219 364.3125 1074 361.285156 1073.851562 C 358.257812 1073.703125 355.234375 1073.480469 352.21875 1073.183594 C 349.203125 1072.886719 346.195312 1072.515625 343.199219 1072.070312 C 340.199219 1071.625 337.214844 1071.105469 334.242188 1070.515625 C 331.269531 1069.925781 328.3125 1069.261719 325.375 1068.523438 C 322.433594 1067.789062 319.515625 1066.980469 316.613281 1066.101562 C 313.714844 1065.21875 310.835938 1064.269531 307.984375 1063.25 C 305.128906 1062.226562 302.304688 1061.136719 299.503906 1059.976562 C 296.703125 1058.816406 293.933594 1057.589844 291.195312 1056.292969 C 288.453125 1055 285.746094 1053.636719 283.074219 1052.207031 C 280.402344 1050.777344 277.765625 1049.285156 275.167969 1047.726562 C 272.566406 1046.167969 270.007812 1044.546875 267.488281 1042.863281 C 264.96875 1041.179688 262.488281 1039.4375 260.054688 1037.628906 C 257.621094 1035.824219 255.234375 1033.960938 252.890625 1032.039062 C 250.546875 1030.117188 248.253906 1028.136719 246.007812 1026.101562 C 243.761719 1024.066406 241.566406 1021.976562 239.425781 1019.835938 C 237.28125 1017.691406 235.191406 1015.496094 233.15625 1013.25 C 231.121094 1011.003906 229.144531 1008.710938 227.21875 1006.367188 C 225.296875 1004.027344 223.433594 1001.636719 221.628906 999.203125 C 219.824219 996.769531 218.078125 994.292969 216.394531 991.773438 C 214.710938 989.253906 213.089844 986.691406 211.53125 984.09375 C 209.972656 981.492188 208.480469 978.855469 207.050781 976.183594 C 205.621094 973.511719 204.261719 970.804688 202.964844 968.066406 C 201.667969 965.324219 200.441406 962.554688 199.28125 959.757812 C 198.121094 956.957031 197.03125 954.128906 196.011719 951.277344 C 194.988281 948.421875 194.039062 945.546875 193.160156 942.644531 C 192.28125 939.746094 191.472656 936.824219 190.734375 933.886719 C 190 930.945312 189.335938 927.988281 188.742188 925.015625 C 188.152344 922.042969 187.632812 919.058594 187.191406 916.0625 C 186.746094 913.0625 186.375 910.054688 186.078125 907.039062 C 185.78125 904.023438 185.558594 901.003906 185.410156 897.976562 C 185.257812 894.949219 185.183594 891.917969 185.183594 888.890625 C 185.183594 885.859375 185.257812 882.828125 185.410156 879.800781 C 185.558594 876.773438 185.78125 873.753906 186.078125 870.738281 C 186.375 867.722656 186.746094 864.714844 187.191406 861.714844 C 187.632812 858.71875 188.152344 855.734375 188.742188 852.761719 C 189.335938 849.789062 190 846.832031 190.734375 843.890625 C 191.472656 840.953125 192.28125 838.03125 193.160156 835.132812 C 194.039062 832.230469 194.988281 829.355469 196.011719 826.5 C 197.03125 823.648438 198.121094 820.820312 199.28125 818.019531 C 200.441406 815.222656 201.667969 812.453125 202.964844 809.710938 C 204.261719 806.972656 205.621094 804.265625 207.050781 801.59375 C 208.480469 798.921875 209.972656 796.285156 211.53125 793.683594 C 213.089844 791.085938 214.710938 788.523438 216.394531 786.003906 C 218.078125 783.484375 219.824219 781.007812 221.628906 778.574219 C 223.433594 776.140625 225.296875 773.75 227.21875 771.410156 C 229.144531 769.066406 231.121094 766.773438 233.15625 764.527344 C 235.191406 762.28125 237.28125 760.085938 239.425781 757.941406 C 241.566406 755.800781 243.761719 753.710938 246.007812 751.675781 C 248.253906 749.640625 250.546875 747.660156 252.890625 745.738281 C 255.234375 743.816406 257.621094 741.953125 260.054688 740.148438 C 262.488281 738.339844 264.96875 736.597656 267.488281 734.914062 C 270.007812 733.230469 272.566406 731.609375 275.167969 730.050781 C 277.765625 728.492188 280.402344 727 283.074219 725.570312 C 285.746094 724.140625 288.453125 722.777344 291.195312 721.484375 C 293.933594 720.1875 296.703125 718.960938 299.503906 717.800781 C 302.304688 716.640625 305.128906 715.550781 307.984375 714.527344 C 310.835938 713.507812 313.714844 712.558594 316.613281 711.675781 C 319.515625 710.796875 322.433594 709.988281 325.375 709.253906 C 328.3125 708.515625 331.269531 707.851562 334.242188 707.261719 C 337.214844 706.671875 340.199219 706.152344 343.199219 705.707031 C 346.195312 705.261719 349.203125 704.890625 352.21875 704.59375 C 355.234375 704.296875 358.257812 704.074219 361.285156 703.925781 C 364.3125 703.777344 367.339844 703.703125 370.371094 703.703125 C 373.402344 703.703125 376.429688 703.777344 379.457031 703.925781 C 382.484375 704.074219 385.503906 704.296875 388.523438 704.59375 C 391.539062 704.890625 394.542969 705.261719 397.542969 705.707031 C 400.539062 706.152344 403.527344 706.671875 406.5 707.261719 C 409.46875 707.851562 412.425781 708.515625 415.367188 709.253906 C 418.304688 709.988281 421.226562 710.796875 424.125 711.675781 C 427.027344 712.558594 429.902344 713.507812 432.757812 714.527344 C 435.609375 715.550781 438.4375 716.640625 441.238281 717.800781 C 444.039062 718.960938 446.808594 720.1875 449.546875 721.484375 C 452.285156 722.777344 454.992188 724.140625 457.667969 725.570312 C 460.339844 727 462.976562 728.492188 465.574219 730.050781 C 468.175781 731.609375 470.734375 733.230469 473.253906 734.914062 C 475.773438 736.597656 478.25 738.339844 480.683594 740.148438 C 483.121094 741.953125 485.507812 743.816406 487.851562 745.738281 C 490.195312 747.660156 492.488281 749.640625 494.734375 751.675781 C 496.980469 753.710938 499.171875 755.800781 501.316406 757.941406 C 503.460938 760.085938 505.546875 762.28125 507.582031 764.527344 C 509.617188 766.773438 511.597656 769.066406 513.519531 771.410156 C 515.441406 773.75 517.308594 776.140625 519.113281 778.574219 C 520.917969 781.007812 522.664062 783.484375 524.347656 786.003906 C 526.03125 788.523438 527.652344 791.085938 529.207031 793.683594 C 530.765625 796.285156 532.261719 798.921875 533.6875 801.59375 C 535.117188 804.265625 536.480469 806.972656 537.777344 809.710938 C 539.070312 812.453125 540.300781 815.222656 541.460938 818.019531 C 542.617188 820.820312 543.710938 823.648438 544.730469 826.5 C 545.75 829.355469 546.703125 832.230469 547.582031 835.132812 C 548.460938 838.03125 549.269531 840.953125 550.003906 843.890625 C 550.742188 846.832031 551.40625 849.789062 551.996094 852.761719 C 552.589844 855.734375 553.105469 858.71875 553.550781 861.714844 C 553.996094 864.714844 554.367188 867.722656 554.664062 870.738281 C 554.960938 873.753906 555.183594 876.773438 555.332031 879.800781 C 555.480469 882.828125 555.554688 885.859375 555.554688 888.890625 Z M 555.554688 888.890625 " fill-opacity="1" fill-rule="nonzero"/><g clip-path="url(#09f7be269a)"><g clip-path="url(#2e64fd5698)"><path fill="url(#3fadfe63bf)" d="M 0 37.035156 L 0 1407.40625 L 1444.445312 1407.40625 L 1444.445312 37.035156 Z M 0 37.035156 " fill-rule="nonzero"/><path fill="url(#3fadfe63bf)" d="M 0 37.035156 L 0 1407.40625 L 1444.445312 1407.40625 L 1444.445312 37.035156 Z M 0 37.035156 " fill-rule="nonzero"/></g></g></svg>