<svg xmlns="http://www.w3.org/2000/svg" xmlns:xlink="http://www.w3.org/1999/xlink" width="2000" zoomAndPan="magnify" viewBox="0 0 1500 1499.999933" height="2000" preserveAspectRatio="xMidYMid meet" version="1.0"><defs><clipPath id="0446a9eab7"><path d="M 45.707031 955 L 1454.175781 955 L 1454.175781 1500 L 45.707031 1500 Z M 45.707031 955 " clip-rule="nonzero"/></clipPath><clipPath id="be3c18f992"><path d="M 749.203125 955 L 1132 955 L 1132 1500 L 749.203125 1500 Z M 749.203125 955 " clip-rule="nonzero"/></clipPath><clipPath id="accc96257e"><path d="M 1150.636719 1324 L 1203 1324 L 1203 1500 L 1150.636719 1500 Z M 1150.636719 1324 " clip-rule="nonzero"/></clipPath></defs><g clip-path="url(#0446a9eab7)"><path fill="#6b809b" d="M 675.425781 1207.765625 L 524.003906 955.382812 C 328.769531 1021.523438 74.121094 1039.578125 55.832031 1302.347656 C 53.515625 1335.636719 48.097656 1418.824219 45.707031 1500.160156 L 1454.175781 1500.160156 C 1451.785156 1418.824219 1446.382812 1335.636719 1444.070312 1302.347656 C 1425.765625 1039.578125 1171.113281 1021.523438 975.894531 955.382812 L 824.472656 1207.765625 L 675.425781 1207.765625 " fill-opacity="1" fill-rule="evenodd"/></g><path fill="#000000" d="M 1032.765625 286.570312 L 1027.503906 400.449219 C 1072.496094 485.777344 1026.492188 532.402344 1002.878906 549.386719 C 991.652344 647.445312 935.496094 712.839844 864.5 745.445312 C 829.765625 761.390625 791.652344 769.371094 753.691406 769.371094 C 715.714844 769.371094 677.601562 761.390625 642.871094 745.445312 C 571.871094 712.839844 515.714844 647.445312 504.488281 549.386719 C 480.859375 532.402344 434.875 485.777344 479.867188 400.449219 L 474.585938 286.570312 L 475.535156 278.867188 C 496.261719 207.933594 544.265625 156.851562 604.039062 125.566406 C 652.308594 100.308594 708.265625 88.089844 763.472656 88.925781 C 818.914062 89.765625 873.90625 103.738281 919.941406 130.816406 C 974.0625 162.660156 1015.875 212.371094 1032.113281 280 L 1032.765625 286.570312 " fill-opacity="1" fill-rule="nonzero"/><path fill="#ffffff" d="M 748.476562 1047.976562 C 872.992188 1047.976562 973.921875 1131.722656 973.921875 1204.675781 C 973.921875 1277.648438 926.414062 1473.566406 856.378906 1500.160156 L 640.527344 1500.160156 C 570.519531 1473.566406 523.027344 1277.632812 523.027344 1204.675781 C 523.027344 1131.722656 623.960938 1047.976562 748.476562 1047.976562 " fill-opacity="1" fill-rule="evenodd"/><path fill="#00bcd4" d="M 751.457031 1049.652344 L 666.4375 1139.269531 L 691.761719 1171.640625 L 626.382812 1500.160156 L 805.003906 1500.160156 L 861.90625 1497.691406 L 819.101562 1171.746094 L 836.488281 1139.269531 L 751.457031 1049.652344 " fill-opacity="1" fill-rule="evenodd"/><path fill="#d3aa96" d="M 940.21875 677.921875 L 949.609375 870.675781 L 745.292969 1075.410156 L 553.316406 865.644531 L 562.136719 677.332031 L 940.21875 677.921875 " fill-opacity="1" fill-rule="evenodd"/><path fill="#02abc1" d="M 737.746094 1049.636719 L 666.4375 1139.269531 L 691.761719 1171.640625 L 691.730469 1171.746094 L 819.101562 1171.746094 L 836.488281 1139.269531 L 766.765625 1049.636719 L 737.746094 1049.636719 " fill-opacity="1" fill-rule="evenodd"/><path fill="#e8e8e8" d="M 467.773438 955.382812 L 553.832031 854.109375 L 751.457031 1049.667969 L 600.296875 1218.679688 L 467.773438 955.382812 " fill-opacity="1" fill-rule="evenodd"/><path fill="#e8e8e8" d="M 1035.15625 955.382812 L 949.097656 854.109375 L 751.457031 1049.667969 L 902.628906 1218.679688 L 1035.15625 955.382812 " fill-opacity="1" fill-rule="evenodd"/><path fill="#d3aa96" d="M 1033.011719 433.023438 C 1033.011719 433.023438 1129.910156 574.847656 1003.808594 633.410156 L 1033.011719 433.023438 " fill-opacity="1" fill-rule="evenodd"/><path fill="#d3aa96" d="M 469.914062 433.023438 C 469.914062 433.023438 373.019531 574.847656 499.101562 633.410156 L 469.914062 433.023438 " fill-opacity="1" fill-rule="evenodd"/><path fill="#ffceb4" d="M 776.421875 163.078125 C 931.179688 163.078125 1036.382812 284.519531 1036.382812 491.679688 C 1036.382812 626.566406 937.328125 903.371094 778.128906 903.371094 C 760.304688 903.371094 742.621094 903.371094 724.796875 903.371094 C 565.597656 903.371094 466.546875 626.566406 466.546875 491.679688 C 466.546875 284.519531 571.746094 163.078125 726.507812 163.078125 C 743.148438 163.078125 759.777344 163.078125 776.421875 163.078125 " fill-opacity="1" fill-rule="evenodd"/><path fill="#000000" d="M 466.546875 491.601562 C 466.546875 491.601562 429.640625 238.796875 472.148438 216.410156 C 464.078125 170.777344 509.257812 129.898438 541.222656 117.679688 C 541.222656 117.679688 597.164062 51.667969 729.175781 38.253906 C 729.175781 38.253906 928.867188 0.167969 1045.867188 183.664062 C 1064.792969 213.335938 1061.613281 206.675781 1040.203125 234.046875 C 1055.214844 313.289062 1053.769531 419.097656 1036.335938 496.878906 C 1036.335938 496.878906 1005.519531 300.046875 970.832031 274.320312 C 970.832031 274.320312 767.214844 383.960938 542.339844 255.300781 C 542.339844 255.300781 511.726562 277.859375 497.859375 333.175781 C 494.738281 345.582031 492.738281 357.738281 490.609375 372.285156 C 484.507812 414.238281 476.265625 449.621094 466.546875 491.601562 " fill-opacity="1" fill-rule="evenodd"/><path fill="#4f6074" d="M 552.757812 1500.160156 L 404.863281 1219.101562 L 450.863281 1139.8125 L 368.003906 1113.929688 L 383.621094 991.820312 L 474.527344 955.382812 L 478.6875 963.609375 L 749.949219 1500.160156 L 552.757812 1500.160156 " fill-opacity="1" fill-rule="evenodd"/><g clip-path="url(#be3c18f992)"><path fill="#4f6074" d="M 947.125 1500.160156 L 1095.023438 1219.101562 L 1049.019531 1139.8125 L 1131.882812 1113.929688 L 1116.277344 991.820312 L 1025.375 955.382812 L 1021.199219 963.609375 L 749.949219 1500.160156 L 947.125 1500.160156 " fill-opacity="1" fill-rule="evenodd"/></g><path fill="#4f6074" d="M 317.359375 1324.488281 L 349.140625 1500.160156 L 297.269531 1500.160156 Z M 317.359375 1324.488281 " fill-opacity="1" fill-rule="evenodd"/><g clip-path="url(#accc96257e)"><path fill="#4f6074" d="M 1182.527344 1324.488281 L 1150.746094 1500.160156 L 1202.617188 1500.160156 Z M 1182.527344 1324.488281 " fill-opacity="1" fill-rule="evenodd"/></g></svg>